<?xml version="1.0" standalone="no"?>
<!DOCTYPE svg PUBLIC "-//W3C//DTD SVG 20010904//EN"
 "http://www.w3.org/TR/2001/REC-SVG-20010904/DTD/svg10.dtd">
<svg version="1.0" xmlns="http://www.w3.org/2000/svg"
 width="700.000000pt" height="700.000000pt" viewBox="0 0 700.000000 700.000000"
 preserveAspectRatio="xMidYMid meet">
<metadata>
Created by potrace 1.14, written by Peter Selinger 2001-2017
</metadata>
<g transform="translate(0.000000,700.000000) scale(0.100000,-0.100000)"
fill="#000000" stroke="none">
<path d="M5335 6609 c-224 -167 -346 -257 -594 -439 -93 -69 -170 -128 -171
-131 0 -4 14 -12 30 -19 17 -7 30 -15 30 -19 0 -3 13 -12 30 -19 33 -15 35
-31 5 -49 -19 -11 -19 -12 7 -18 16 -4 25 -11 22 -16 -3 -5 0 -8 8 -7 7 2 12
-3 11 -9 -2 -8 9 -6 31 7 37 20 48 18 39 -8 -4 -10 -3 -14 2 -10 11 10 42 -9
56 -33 8 -15 8 -19 0 -15 -6 4 -11 2 -11 -4 0 -7 7 -9 16 -6 9 3 18 6 20 6 3
0 0 10 -6 23 -9 19 -9 20 2 6 7 -9 20 -14 28 -11 8 2 5 -3 -7 -13 -13 -9 -23
-22 -23 -28 0 -9 2 -9 8 0 4 6 19 14 33 16 19 4 25 1 26 -14 1 -10 -3 -22 -9
-25 -7 -5 -9 -2 -6 8 4 8 0 15 -8 15 -7 0 -15 -6 -18 -14 -3 -7 0 -12 7 -10 7
1 11 -3 10 -9 -1 -6 4 -11 12 -11 8 0 12 4 9 9 -3 5 6 7 20 4 15 -3 24 -1 21
4 -3 5 -1 12 5 15 6 4 9 1 8 -6 -2 -7 2 -13 9 -14 6 0 15 -4 20 -9 4 -5 4 -7
-2 -3 -6 3 -15 -5 -21 -18 -11 -23 -11 -24 12 -8 13 8 24 11 24 7 0 -5 5 -2
10 6 8 11 9 8 4 -12 -4 -18 -2 -28 6 -28 6 0 9 4 5 9 -3 5 0 13 6 17 8 4 9 3
5 -4 -4 -7 -2 -12 4 -12 6 0 8 -11 6 -25 -3 -13 0 -27 5 -31 5 -3 6 -10 3 -16
-4 -7 0 -7 13 0 15 9 22 6 33 -11 8 -12 14 -24 13 -27 -1 -3 7 -7 18 -7 10 -1
19 2 19 8 0 5 -6 8 -12 6 -7 -1 -12 4 -10 11 1 8 -2 11 -9 6 -8 -5 -9 -3 -4 6
6 9 4 11 -5 5 -9 -5 -11 -4 -6 3 7 12 -5 16 -34 12 -8 -1 -12 1 -8 6 4 4 4 12
-2 18 -5 7 -5 17 1 26 8 12 9 11 7 -4 -2 -10 3 -21 11 -24 9 -3 11 0 7 9 -4 8
1 4 12 -8 11 -12 23 -19 27 -15 5 4 5 2 2 -4 -6 -10 21 -43 30 -36 1 1 9 2 16
2 8 0 7 -4 -3 -10 -8 -5 -11 -10 -6 -10 5 0 4 -6 -2 -13 -8 -9 -8 -17 0 -27 8
-12 9 -12 4 3 -3 9 -1 17 4 17 19 0 21 -22 5 -48 -16 -27 -16 -27 2 -6 10 11
26 20 35 18 12 -1 15 3 10 14 -7 20 73 -70 88 -99 6 -11 16 -16 22 -13 7 4 8
3 4 -4 -4 -6 -14 -9 -24 -6 -14 5 -14 4 -3 -4 8 -6 21 -8 30 -5 13 5 14 3 4
-8 -16 -16 -17 -29 -2 -29 5 0 7 5 4 10 -3 6 -2 10 4 10 5 0 13 -9 16 -20 4
-11 10 -18 15 -15 4 3 14 -8 22 -25 7 -16 16 -30 20 -30 5 0 8 -4 8 -10 0 -12
-22 -9 -33 5 -5 6 -7 4 -4 -5 2 -8 9 -16 15 -16 7 -1 16 -2 21 -3 12 -1 62
-101 56 -111 -3 -5 2 -11 11 -14 9 -4 14 -13 10 -21 -3 -8 0 -15 5 -15 6 0 9
-9 6 -20 -3 -10 -1 -20 5 -22 5 -2 10 -14 10 -28 1 -14 6 -28 10 -31 4 -3 10
-34 13 -70 2 -35 7 -79 9 -97 4 -24 2 -31 -7 -25 -7 4 -5 -1 3 -12 18 -22 18
-18 1 -38 -7 -10 -9 -17 -4 -17 7 0 7 -15 2 -42 -5 -24 -12 -59 -14 -78 -3
-19 -15 -62 -26 -95 -55 -162 -349 -703 -492 -905 -29 -41 -89 -127 -132 -190
-65 -94 -147 -213 -215 -310 -11 -16 -137 -199 -245 -355 -34 -49 -92 -133
-128 -185 -37 -52 -71 -102 -77 -110 -15 -23 -295 -426 -348 -502 l-46 -67
-18 27 c-16 25 -16 27 0 43 9 9 21 14 26 11 5 -3 6 0 1 7 -5 9 -10 10 -18 2
-14 -14 -44 -14 -53 0 -4 8 1 9 17 4 20 -6 18 -3 -8 17 -18 12 -33 28 -33 35
0 6 -6 14 -12 16 -10 4 -10 6 0 6 7 1 15 -6 18 -14 8 -19 44 -40 44 -25 0 5
-7 10 -15 10 -8 0 -15 5 -15 10 0 6 5 10 12 10 17 0 3 10 -21 15 -32 6 -41 14
-34 32 4 11 2 14 -5 9 -12 -7 -38 32 -33 53 1 7 -2 10 -8 6 -7 -3 -8 0 -5 9 3
8 12 12 21 9 8 -3 3 6 -12 21 -15 15 -30 25 -33 22 -3 -4 3 -12 13 -20 14 -10
15 -15 5 -21 -9 -5 -11 -4 -6 3 4 7 3 12 -3 12 -11 0 -43 54 -47 78 -5 30 -14
43 -25 36 -7 -4 -9 -3 -5 4 3 5 0 13 -6 16 -7 3 -2 3 11 0 16 -4 21 -3 17 5
-4 6 -15 11 -26 11 -22 0 -32 23 -17 40 9 10 9 11 0 6 -8 -4 -13 -2 -13 5 0 7
-3 9 -7 6 -7 -7 -32 22 -33 38 0 6 4 4 9 -3 6 -11 9 -9 13 6 4 15 1 18 -12 15
-23 -6 -43 27 -29 48 8 12 10 12 19 -1 6 -9 10 -10 10 -3 0 18 -19 26 -34 14
-7 -6 -15 -8 -19 -5 -8 8 3 35 12 29 4 -2 8 2 8 10 0 13 -3 13 -17 0 -15 -13
-19 -9 -51 47 -19 33 -33 64 -32 67 1 3 4 13 7 21 3 9 -5 23 -22 35 -21 15
-24 15 -13 2 7 -9 9 -17 3 -17 -9 0 -24 24 -26 43 -1 4 -8 12 -16 17 -8 5 -10
10 -5 10 19 0 38 -18 31 -29 -4 -6 -5 -11 -2 -11 3 0 11 10 17 23 6 12 8 19 4
15 -7 -7 -65 18 -65 28 0 3 4 3 9 0 13 -9 7 22 -7 36 -9 9 -12 9 -12 0 0 -7 5
-12 12 -12 6 0 8 -3 5 -7 -4 -3 -17 4 -29 17 -17 18 -18 22 -5 17 26 -10 20 8
-8 23 -27 14 -25 32 3 24 14 -5 14 -4 2 4 -8 6 -18 8 -22 6 -4 -3 -8 2 -8 11
0 10 -5 13 -12 9 -6 -4 -8 -3 -5 3 4 6 0 14 -9 17 -9 4 -14 9 -10 13 3 3 -5
21 -19 38 -13 18 -21 35 -18 39 4 3 2 6 -4 6 -9 0 -21 27 -21 47 0 3 -8 10
-17 16 -15 8 -15 10 2 29 18 21 18 21 -4 9 -13 -6 -24 -9 -24 -6 -1 3 -2 9 -3
13 0 5 -9 16 -18 26 -10 9 -14 24 -11 33 5 12 3 14 -7 8 -8 -5 -11 -4 -6 3 3
6 -2 15 -11 21 -10 6 -13 11 -7 11 5 0 20 -9 32 -20 12 -12 22 -16 22 -10 0 6
-7 13 -15 16 -8 4 -12 11 -8 17 3 5 1 7 -4 4 -12 -7 -56 27 -47 36 10 10 34
-4 27 -16 -4 -6 -1 -7 6 -2 9 5 7 12 -8 27 -12 10 -19 23 -16 29 4 5 1 9 -5 9
-7 0 -9 -8 -5 -21 5 -14 3 -20 -5 -17 -6 2 -10 6 -8 8 1 3 -5 16 -15 30 -21
30 -22 47 -2 30 8 -7 12 -17 8 -24 -3 -7 -1 -6 7 1 8 7 12 14 9 15 -2 2 -17
14 -34 28 -16 14 -23 17 -16 8 7 -10 9 -18 3 -18 -15 0 -22 26 -10 38 8 8 15
7 25 -6 11 -15 12 -13 2 10 -11 25 -13 26 -25 10 -12 -15 -14 -16 -29 -1 -17
17 -11 49 10 49 8 0 16 4 19 9 4 5 -4 7 -16 3 -14 -3 -19 -1 -14 6 3 6 2 13
-3 17 -6 3 -8 -3 -6 -15 2 -11 -2 -23 -8 -26 -7 -4 -9 -4 -5 1 4 4 0 14 -10
22 -9 8 -11 11 -3 7 9 -4 12 -3 7 4 -3 6 2 15 11 21 16 9 16 10 -4 8 -12 0
-19 -5 -17 -9 3 -4 0 -8 -5 -8 -6 0 -11 9 -11 20 0 14 5 18 18 14 14 -5 14 -4
2 4 -9 7 -18 8 -26 1 -8 -7 -15 -6 -20 2 -4 7 -3 9 2 6 6 -3 15 3 22 13 9 15
7 21 -13 34 -13 9 -23 22 -21 29 1 6 1 9 -1 5 -3 -5 -12 -8 -21 -8 -14 1 -12
5 7 20 13 11 19 20 14 20 -5 0 -14 -5 -21 -12 -9 -9 -15 -9 -23 -1 -8 8 -7 13
2 18 8 6 10 4 4 -5 -5 -9 -4 -11 4 -6 9 6 9 11 0 22 -13 16 -23 19 -14 4 3 -5
1 -10 -4 -10 -11 0 -15 13 -12 38 1 7 -3 11 -8 10 -14 -4 -60 73 -54 89 3 7
10 10 16 6 6 -3 7 -1 3 6 -6 9 -12 9 -24 -1 -14 -11 -14 -8 1 15 10 16 16 31
13 35 -3 3 -6 0 -6 -7 0 -7 -5 -9 -10 -6 -6 4 -9 1 -8 -6 2 -6 -3 -14 -11 -17
-8 -3 -11 0 -7 6 8 14 -12 55 -23 48 -4 -3 -7 5 -7 17 1 15 -4 21 -14 19 -8
-2 -12 0 -8 4 4 4 -2 21 -15 38 -23 33 -32 60 -15 50 7 -5 8 -2 4 5 -5 7 -15
10 -23 7 -8 -3 -11 -1 -8 4 3 6 1 10 -4 10 -6 0 -11 5 -11 12 0 6 -7 19 -16
29 -12 13 -12 19 -3 25 8 5 10 3 4 -6 -6 -9 -4 -11 4 -6 7 5 10 10 7 14 -3 3
2 11 12 19 16 12 15 13 -3 6 -18 -6 -19 -5 -5 13 14 18 14 18 -2 5 -10 -7 -15
-17 -12 -22 10 -17 -19 -9 -32 8 -16 22 -17 33 -3 33 5 0 8 -4 4 -9 -3 -5 -1
-12 4 -15 5 -4 12 -2 15 3 4 5 2 12 -4 16 -6 4 -8 10 -5 14 2 5 -8 6 -23 3
-26 -4 -26 -4 -7 11 19 16 19 16 -5 11 -20 -5 -22 -3 -10 5 13 10 13 11 0 11
-15 0 -55 57 -52 73 1 4 -5 10 -13 13 -12 5 -13 10 -5 19 8 10 6 15 -11 20
l-22 7 24 15 c20 11 21 13 3 8 -14 -3 -27 2 -40 16 l-19 22 25 -13 c18 -9 25
-10 28 -1 2 6 9 8 14 5 7 -5 8 -2 3 5 -5 9 -10 10 -18 2 -12 -12 -71 25 -62
39 3 5 2 10 -2 12 -5 1 -18 17 -30 34 -17 24 -19 34 -10 44 10 10 8 12 -6 7
-11 -4 -16 -3 -12 3 3 6 1 10 -5 10 -6 0 -8 5 -5 10 3 6 2 10 -4 10 -5 0 -13
10 -17 22 -4 13 -14 28 -22 34 -12 9 -12 13 -2 19 8 5 11 4 7 -1 -3 -6 2 -10
12 -11 10 -1 18 5 18 12 0 8 -4 12 -9 9 -5 -3 -16 0 -25 8 -12 9 -15 9 -9 1 4
-7 2 -13 -3 -13 -6 0 -11 9 -11 21 0 11 5 17 10 14 6 -3 10 -1 10 4 0 6 -2 11
-4 11 -2 0 -13 3 -23 6 -13 4 -15 3 -4 -4 9 -7 10 -12 2 -16 -10 -6 -15 6 -12
27 0 4 -4 7 -9 7 -6 0 -10 6 -10 14 0 8 -6 17 -12 19 -10 4 -10 6 -1 6 7 1 17
-8 23 -19 11 -21 30 -19 30 3 0 9 -3 8 -8 -1 -6 -9 -12 -6 -21 12 -9 16 -19
22 -29 19 -9 -4 -13 -2 -9 4 4 6 0 14 -9 17 -8 3 -13 10 -10 14 3 5 -3 18 -14
30 -16 17 -17 21 -4 26 9 3 12 1 9 -4 -3 -6 -1 -10 5 -10 6 0 8 -5 4 -12 -4
-7 -3 -8 4 -4 8 5 9 13 2 25 -5 10 -8 20 -7 22 1 3 -2 1 -8 -3 -5 -5 -16 -8
-25 -8 -12 1 -11 4 4 15 11 8 16 15 12 15 -5 0 -3 6 3 13 8 10 7 14 -4 14 -8
0 -12 -4 -9 -9 3 -4 0 -8 -6 -8 -6 0 -8 -4 -5 -10 3 -5 2 -10 -4 -10 -17 0
-19 25 -2 45 15 18 15 19 -2 6 -14 -11 -21 -11 -29 -3 -7 7 -8 12 -3 12 5 0 2
6 -7 13 -20 16 -78 123 -71 131 3 3 -2 8 -11 12 -16 6 -13 24 5 24 6 0 7 -5 3
-12 -4 -7 -3 -8 4 -4 16 10 15 14 -9 27 -15 8 -19 8 -15 0 4 -6 2 -11 -3 -11
-6 0 -11 6 -11 13 0 7 -10 24 -22 37 -13 14 -16 22 -7 18 10 -4 15 0 15 13 0
12 -4 15 -11 9 -14 -12 -35 7 -35 31 0 9 -8 20 -17 23 -11 5 -13 10 -6 17 12
12 6 49 -9 49 -5 0 -4 -9 2 -20 7 -14 7 -20 0 -20 -5 0 -10 6 -10 14 0 8 -7
16 -15 20 -9 3 -12 12 -8 22 4 10 2 15 -3 11 -5 -3 -11 6 -12 19 -1 18 2 23
11 18 7 -4 8 -3 4 2 -5 5 -15 9 -23 9 -7 0 -13 3 -11 7 1 4 -7 14 -18 22 -11
9 -15 16 -10 16 6 0 4 4 -4 9 -13 8 -13 12 0 27 12 16 12 17 -3 11 -12 -4 -18
-1 -18 9 0 8 4 12 10 9 6 -3 7 1 4 9 -3 9 -10 16 -16 16 -5 0 -7 -4 -4 -8 2
-4 0 -14 -6 -22 -8 -12 -9 -12 -5 2 3 9 1 18 -4 20 -6 2 -1 15 10 30 12 14 21
30 21 34 0 4 -7 -1 -16 -12 -11 -13 -14 -14 -11 -4 3 11 -2 16 -17 17 -11 0
-15 -1 -8 -4 13 -5 17 -23 5 -23 -14 0 -53 69 -43 75 6 3 10 -2 10 -12 0 -15
2 -16 10 -3 15 23 12 28 -14 26 -23 -3 -33 5 -34 28 0 5 -6 12 -14 17 -7 4
-13 16 -13 26 0 10 -6 17 -14 15 -12 -3 -12 0 -1 12 7 9 9 16 4 16 -5 0 -2 5
6 11 12 9 12 10 -3 5 -10 -3 -25 1 -34 10 -14 13 -13 14 13 9 l29 -5 -27 11
c-23 9 -88 87 -88 105 0 3 -9 19 -21 35 -11 16 -17 29 -13 29 4 0 -2 10 -13
23 -30 32 -45 66 -37 80 4 6 4 9 -1 5 -10 -9 -28 10 -49 50 -9 18 -21 32 -26
32 -10 0 -1082 -380 -1089 -386 -2 -2 9 -22 24 -46 24 -36 26 -44 15 -62 -12
-19 -12 -20 4 -7 15 12 18 10 33 -27 9 -23 19 -39 23 -37 9 5 26 -37 29 -72 0
-7 8 -13 16 -13 8 0 15 -3 15 -7 0 -5 20 -38 43 -74 24 -36 43 -73 41 -82 -1
-9 2 -15 8 -14 5 1 19 -16 31 -38 12 -22 26 -43 30 -46 5 -3 2 -9 -7 -12 -18
-7 -22 -27 -5 -27 5 0 7 5 4 10 -3 6 1 10 9 10 8 0 18 -5 22 -12 5 -7 2 -8 -7
-3 -8 5 -11 4 -6 0 4 -5 -1 -18 -10 -29 -18 -21 -18 -21 3 -3 23 19 39 23 29
7 -3 -5 -2 -10 2 -10 5 0 14 -9 20 -20 11 -17 10 -19 -5 -14 -10 3 -8 0 4 -7
12 -6 28 -23 35 -38 7 -14 22 -36 33 -48 11 -13 17 -23 13 -23 -3 0 14 -30 39
-67 24 -38 44 -72 44 -76 0 -4 9 -17 20 -29 16 -17 17 -24 7 -37 -10 -12 -9
-14 6 -8 11 4 16 3 12 -3 -3 -6 -2 -10 4 -10 6 0 15 -10 22 -21 9 -17 8 -20
-3 -13 -7 4 2 -7 20 -25 17 -18 30 -36 27 -41 -2 -4 7 -20 20 -36 26 -30 34
-61 13 -48 -7 4 -8 3 -4 -4 4 -6 13 -9 20 -6 8 3 18 -8 27 -28 7 -18 16 -35
19 -38 18 -13 56 -87 52 -99 -3 -9 0 -11 8 -6 10 6 12 3 8 -13 -4 -15 -2 -19
8 -15 14 5 20 -12 7 -20 -5 -2 -3 -2 4 -1 17 4 26 -13 11 -19 -9 -4 -8 -6 2
-6 8 -1 21 -11 29 -23 13 -22 13 -23 -6 -6 -22 20 -33 23 -33 7 0 -5 4 -8 8
-5 5 3 23 -9 41 -26 25 -24 29 -34 20 -45 -7 -7 -9 -16 -5 -20 3 -3 6 -1 6 5
0 7 4 12 9 12 6 0 8 -9 6 -19 -3 -14 1 -18 11 -14 8 3 14 1 14 -5 0 -5 11 -26
25 -46 14 -21 21 -35 15 -31 -5 3 -10 1 -10 -4 0 -6 8 -11 18 -11 13 0 14 -2
4 -9 -10 -6 -8 -10 10 -15 14 -4 18 -9 11 -13 -18 -7 -16 -24 2 -17 10 4 15 0
15 -16 0 -11 5 -18 10 -15 6 3 10 0 10 -8 0 -8 7 -20 15 -27 15 -13 11 -35 -6
-25 -5 4 -9 1 -9 -4 0 -6 10 -10 23 -8 17 1 21 -2 19 -18 -2 -11 -1 -17 4 -13
4 4 13 0 20 -10 9 -13 10 -21 1 -32 -6 -8 -8 -12 -3 -8 5 4 15 1 22 -7 19 -19
18 -27 -4 -21 -9 3 -24 1 -32 -4 -9 -6 -2 -8 23 -6 21 2 40 -1 43 -5 3 -5 -1
-9 -8 -10 -7 0 -3 -4 9 -9 13 -5 23 -16 23 -25 0 -8 5 -15 12 -15 6 0 8 -3 5
-6 -4 -4 -15 -1 -24 7 -10 7 0 -4 22 -27 23 -22 47 -56 55 -75 8 -18 21 -40
30 -47 13 -10 12 -11 -5 -6 -12 3 -9 -1 8 -11 15 -8 27 -18 27 -21 0 -3 -6 -2
-12 2 -14 9 10 -26 27 -38 6 -5 6 -8 0 -8 -5 0 1 -7 13 -16 19 -13 21 -18 10
-32 -7 -9 -8 -13 -2 -9 15 9 38 -19 28 -34 -4 -7 -3 -9 4 -5 6 4 18 -9 28 -31
10 -21 24 -41 31 -46 6 -4 10 -14 7 -22 -4 -8 -1 -15 6 -15 7 0 9 -9 6 -22 -3
-13 -3 -17 0 -10 3 6 10 12 15 12 6 0 7 -4 4 -10 -3 -5 -1 -10 5 -10 6 0 8 -4
5 -10 -3 -5 -1 -10 5 -10 6 0 8 -4 5 -10 -3 -5 -1 -10 5 -10 7 0 9 -7 6 -16
-3 -8 -2 -12 4 -9 5 3 15 -5 22 -19 6 -14 15 -26 20 -26 4 0 8 -5 8 -10 0 -7
-6 -7 -19 0 -15 7 -19 7 -17 -5 1 -8 6 -18 11 -22 4 -4 5 -2 1 5 -4 6 -2 12 4
12 15 0 60 -50 60 -66 0 -7 6 -15 13 -17 9 -4 9 -6 0 -6 -7 -1 -13 -6 -13 -12
0 -5 4 -8 9 -4 16 9 23 -15 9 -32 -12 -15 -11 -15 9 -5 17 9 22 9 27 -4 4 -10
1 -13 -7 -9 -6 4 -5 1 4 -7 28 -23 38 -52 27 -73 -9 -17 -8 -18 3 -8 15 15 33
17 24 4 -3 -6 5 -20 17 -32 13 -12 16 -19 8 -15 -8 4 -5 -1 8 -11 18 -15 20
-21 10 -32 -7 -8 -8 -11 -3 -9 6 3 16 0 23 -8 10 -11 10 -14 0 -15 -7 0 -3 -4
10 -9 12 -5 22 -15 22 -22 0 -9 -3 -9 -10 2 -7 12 -9 10 -8 -7 1 -11 7 -19 14
-16 13 5 57 -51 47 -61 -3 -3 -1 -6 5 -6 7 0 12 -9 12 -21 0 -11 -4 -17 -10
-14 -5 3 -10 1 -10 -4 0 -14 13 -14 26 -1 7 7 18 -7 35 -40 13 -27 28 -50 33
-50 4 0 5 -7 2 -16 -3 -8 -2 -12 3 -9 9 5 27 -32 23 -47 -1 -5 5 -8 14 -8 8 0
12 -5 9 -10 -4 -6 -10 -8 -14 -6 -4 3 -8 -2 -8 -10 0 -10 4 -11 11 -4 14 14
26 12 26 -5 0 -8 6 -15 13 -15 7 0 8 -3 2 -8 -5 -4 -11 -13 -13 -21 -3 -12 0
-12 12 -2 13 11 16 9 22 -13 3 -14 11 -26 17 -26 6 0 8 -3 4 -6 -3 -4 -1 -12
6 -20 31 -35 37 -44 28 -44 -5 0 4 -14 20 -31 31 -33 35 -49 19 -65 -7 -7 -6
-11 4 -11 8 0 13 4 10 9 -3 4 0 8 5 8 6 0 11 -6 11 -13 0 -7 9 -23 20 -35 21
-22 28 -44 8 -24 -15 15 -28 16 -28 2 0 -5 5 -9 12 -7 7 1 12 -4 13 -12 0 -8
7 -16 15 -18 13 -4 13 -3 0 7 -13 10 -13 11 0 7 8 -2 14 -10 13 -16 -2 -6 1
-11 6 -11 15 0 22 -33 9 -42 -9 -6 -7 -8 7 -6 14 2 20 -2 19 -14 -1 -10 4 -18
12 -18 9 0 12 -10 10 -30 -2 -16 0 -28 4 -25 14 9 49 -25 43 -42 -4 -10 -2
-14 4 -10 6 4 16 -6 23 -23 7 -16 18 -34 25 -40 8 -6 11 -19 8 -28 -3 -9 -2
-14 2 -10 8 7 73 -90 78 -115 1 -6 11 -20 22 -30 18 -17 18 -18 2 -13 -11 3
-16 2 -12 -4 3 -6 13 -10 21 -10 8 0 13 -4 10 -9 -3 -5 1 -12 10 -15 9 -4 14
-13 10 -21 -3 -9 0 -15 9 -15 9 0 12 -6 8 -17 -5 -12 -3 -14 8 -8 11 6 12 5 2
-6 -7 -7 -13 -18 -13 -24 0 -5 4 -4 9 4 11 17 31 6 31 -19 0 -10 6 -20 13 -23
9 -3 9 -8 -2 -21 -12 -14 -12 -16 3 -10 24 9 49 -25 33 -45 -10 -12 -9 -14 5
-9 14 6 23 -3 31 -32 0 -3 9 -14 19 -24 20 -22 25 -62 6 -50 -7 4 -8 3 -4 -5
6 -9 11 -9 22 0 11 9 14 8 14 -4 0 -9 -5 -19 -10 -22 -13 -8 -3 -25 13 -25 8
0 8 3 -2 9 -9 6 -10 11 -3 15 6 4 17 -4 24 -16 12 -22 14 -28 17 -55 0 -7 7
-13 15 -13 15 0 30 -27 27 -47 -1 -7 5 -13 14 -13 12 0 15 -7 11 -30 -2 -17 0
-28 5 -24 5 3 7 11 3 17 -3 7 3 1 14 -13 15 -18 18 -28 10 -38 -8 -10 -7 -11
8 -6 10 4 16 4 12 -1 -4 -4 0 -14 10 -22 15 -13 15 -14 -8 -9 -19 4 -17 2 8
-9 17 -8 32 -21 32 -28 0 -8 -4 -7 -10 3 -7 11 -10 12 -10 2 0 -8 9 -16 21
-19 16 -4 17 -8 7 -14 -10 -7 -9 -9 5 -9 10 0 17 -8 17 -21 0 -13 4 -18 13
-14 6 4 3 -1 -8 -10 -20 -17 -20 -17 4 -10 16 5 21 4 17 -4 -4 -6 -1 -14 8
-17 8 -3 17 -13 20 -21 5 -13 4 -14 -9 -3 -13 11 -14 10 -9 -4 3 -9 11 -16 18
-16 20 0 39 -40 26 -55 -9 -11 -7 -12 8 -9 13 4 22 -3 30 -21 7 -14 9 -24 4
-21 -4 2 -9 -5 -9 -17 -2 -16 0 -18 7 -8 7 12 11 13 25 1 9 -7 14 -19 11 -26
-3 -8 3 -18 12 -23 9 -6 13 -11 7 -11 -6 0 -5 -3 1 -8 6 -4 28 -34 49 -66 26
-40 32 -57 21 -53 -10 4 -15 3 -11 -3 3 -6 13 -10 21 -10 8 0 14 -7 14 -15 0
-8 5 -15 11 -15 5 0 7 -4 4 -10 -3 -5 0 -10 7 -10 9 0 9 -3 -2 -10 -12 -8 -10
-10 9 -10 16 0 21 -4 18 -14 -3 -8 1 -17 9 -20 9 -3 13 -10 10 -15 -7 -10 23
-26 55 -30 5 0 8 -5 5 -9 -2 -4 5 -9 16 -9 20 -2 20 -1 2 13 -15 11 -15 13 -3
8 10 -3 19 -1 23 4 3 4 -13 8 -34 7 -23 -1 -37 3 -33 8 4 6 1 7 -6 2 -10 -5
-10 -3 0 12 6 11 18 20 27 20 12 0 12 -3 -2 -13 -10 -7 -13 -15 -7 -18 5 -3
12 0 14 6 4 10 8 9 16 -2 10 -13 14 -12 32 9 16 20 22 22 32 11 9 -10 9 -11
-1 -6 -8 5 -11 2 -10 -6 2 -7 -2 -12 -7 -11 -6 1 -11 -7 -11 -17 0 -10 4 -17
7 -14 4 2 10 0 14 -6 3 -5 12 -10 18 -10 7 0 4 5 -5 11 -10 5 -18 15 -18 21 0
7 5 6 15 -2 10 -9 15 -9 15 -1 0 6 -5 11 -11 11 -5 0 -7 5 -4 10 4 6 11 8 16
5 5 -4 6 2 2 12 -6 15 -4 16 8 6 13 -10 16 -10 16 1 0 8 -8 13 -18 11 -10 -2
-18 -1 -18 3 3 19 -2 26 -10 14 -7 -11 -9 -11 -14 1 -6 15 15 18 29 4 12 -11
27 -8 53 12 18 14 21 20 11 26 -9 5 -11 4 -6 -3 4 -7 2 -12 -4 -12 -7 0 -10 7
-6 15 3 8 -2 19 -11 23 -13 8 -10 10 12 10 20 0 24 -3 14 -10 -11 -8 -11 -9 1
-5 8 2 16 13 18 25 2 12 8 20 13 17 5 -4 9 1 9 9 0 9 -5 15 -12 13 -6 -1 -13
5 -13 13 -1 8 0 9 2 2 3 -7 9 -10 14 -6 5 3 7 10 3 15 -3 5 -2 9 3 8 23 -4 30
4 28 31 -1 16 1 27 6 24 12 -7 11 3 -1 27 -17 31 -4 22 19 -14 11 -17 21 -26
21 -18 0 11 4 10 16 -5 14 -18 15 -18 4 4 -6 13 -16 20 -23 16 -9 -5 -9 -4 0
6 10 11 15 11 29 -1 16 -13 16 -12 4 8 -11 17 -18 19 -32 12 -11 -6 -18 -6
-18 -1 0 8 42 25 46 19 1 -1 11 6 22 16 16 15 24 16 41 7 12 -6 21 -8 21 -6 0
3 -14 13 -31 22 -20 10 -28 11 -24 3 6 -8 4 -10 -5 -4 -9 6 -11 4 -5 -5 6 -9
4 -11 -5 -5 -8 5 -11 4 -7 -2 7 -12 -29 -10 -40 2 -5 4 -3 5 3 2 14 -8 56 21
49 34 -4 5 -1 9 4 9 6 0 11 -4 11 -10 0 -5 7 -7 15 -4 8 4 15 11 15 17 0 6 -3
7 -7 4 -3 -4 -12 -2 -20 4 -10 9 -18 8 -31 -2 -16 -12 -16 -12 0 6 14 15 20
16 32 5 9 -7 16 -9 16 -5 0 4 8 1 17 -6 10 -8 14 -9 10 -2 -4 6 -3 14 3 18 6
4 8 11 5 16 -4 5 2 9 12 10 11 0 13 3 5 6 -15 6 -44 -16 -36 -28 3 -5 -2 -6
-10 -3 -8 3 -17 12 -20 20 -3 8 -2 12 4 9 12 -7 33 32 24 47 -4 7 -3 8 5 4 7
-4 9 -16 5 -28 -5 -17 -3 -18 14 -9 24 13 38 31 23 31 -5 0 -11 -3 -14 -7 -2
-5 -2 -2 -1 4 2 7 -5 17 -14 23 -14 9 -13 10 7 4 15 -4 21 -2 17 4 -6 10 23
26 32 17 3 -3 1 -5 -5 -5 -6 0 -13 -7 -17 -15 -3 -9 0 -15 10 -15 8 0 13 4 10
9 -3 5 2 15 11 22 14 12 16 12 11 -2 -4 -9 -1 -16 6 -16 7 0 13 6 13 14 0 7
-4 13 -9 13 -5 0 -7 4 -4 8 3 5 -1 9 -9 9 -8 0 -11 -5 -8 -11 3 -6 2 -7 -2 -3
-20 18 -12 33 15 29 15 -2 31 1 34 7 4 6 -4 9 -20 8 -15 -1 -28 4 -30 11 -1 7
0 8 3 2 8 -16 23 -1 17 18 -5 14 -4 14 4 3 12 -17 45 -25 35 -8 -4 7 0 8 11 4
10 -4 15 -3 11 3 -3 6 -1 10 6 10 7 0 9 3 6 7 -4 3 -2 12 4 20 6 7 8 13 4 13
-4 0 3 9 16 20 13 10 20 19 15 20 -5 0 -3 6 3 14 9 11 9 16 0 22 -8 5 -9 3 -4
-6 5 -8 4 -11 -3 -6 -7 4 -9 -1 -7 -15 2 -12 1 -18 -3 -15 -4 4 -7 11 -7 14 0
4 -4 13 -9 21 -6 9 -5 12 2 7 6 -3 13 -2 17 4 3 5 -2 10 -12 11 -11 0 -13 3
-5 6 7 3 19 -1 28 -7 8 -7 18 -10 22 -6 4 4 -1 12 -11 17 -9 6 -17 15 -17 22
0 7 4 6 10 -3 11 -18 25 -7 17 14 -4 10 -13 13 -24 9 -10 -3 -15 -3 -12 1 10
11 50 16 44 5 -4 -5 -2 -9 4 -9 19 0 21 19 4 30 -13 8 -14 10 -3 9 29 -3 41 1
35 11 -4 6 -10 8 -14 6 -4 -3 -8 1 -8 9 0 12 4 12 19 -2 19 -17 19 -18 1 -31
-14 -12 -15 -14 -2 -9 9 3 23 0 30 -6 11 -10 11 -9 0 6 -7 9 -10 17 -5 18 24
2 47 8 52 15 4 4 -1 4 -11 1 -15 -6 -17 -3 -12 14 5 16 3 20 -6 17 -8 -3 -13
-12 -11 -22 4 -22 -11 -20 -25 4 -11 16 -10 18 3 13 9 -3 14 -1 12 7 -5 19 31
20 43 2 10 -16 10 -16 5 0 -6 19 9 34 17 18 3 -6 4 -5 3 2 -2 7 -15 12 -30 11
-15 -1 -24 2 -21 7 8 13 48 13 61 0 6 -6 15 -5 24 1 13 9 12 10 -2 6 -9 -3
-22 1 -28 8 -7 8 -16 12 -21 9 -5 -3 -6 3 -2 12 4 10 2 15 -4 11 -5 -3 -10 0
-10 8 0 8 4 12 8 9 4 -2 10 2 13 8 4 9 5 8 5 -2 -2 -31 1 -40 16 -40 8 0 15 5
15 11 0 5 5 7 11 4 6 -4 5 2 -2 13 -7 12 -18 18 -24 15 -5 -4 -7 -3 -3 2 4 4
0 14 -10 22 -15 12 -14 13 8 2 13 -7 31 -21 40 -32 14 -16 17 -17 17 -4 0 9
-5 13 -10 10 -5 -3 -7 0 -5 8 3 8 14 13 24 12 10 -1 13 0 6 3 -10 5 -10 11 2
29 10 15 12 26 6 30 -10 6 -14 -1 -11 -18 1 -5 -3 -6 -9 -2 -6 3 -7 0 -4 -10
4 -10 2 -15 -7 -13 -8 2 -13 -3 -11 -10 1 -8 -2 -11 -8 -7 -8 5 -8 11 0 20 6
7 9 19 7 26 -2 8 -2 10 1 6 2 -5 13 -1 23 9 16 14 21 15 36 3 9 -8 14 -9 10
-3 -3 6 3 17 14 24 10 8 19 18 19 23 0 5 -8 3 -17 -4 -15 -12 -16 -12 -10 5 4
10 2 25 -5 34 -8 10 -9 13 -2 9 7 -4 14 0 18 8 3 8 11 15 18 15 9 0 9 -3 -2
-11 -13 -9 -13 -10 1 -6 9 3 23 0 30 -6 10 -10 10 -8 0 6 -8 9 -11 21 -7 24 4
4 11 1 16 -7 6 -9 10 -10 10 -3 0 7 -8 16 -17 22 -10 5 -15 13 -11 17 4 4 14
1 22 -6 9 -6 21 -10 28 -7 8 3 6 6 -5 6 -10 1 -15 6 -12 11 4 6 12 7 18 3 7
-4 6 0 -2 10 -14 18 -36 13 -25 -5 5 -7 2 -8 -5 -4 -7 5 -10 11 -7 14 3 3 0
12 -7 21 -10 14 -10 14 4 4 9 -7 19 -10 22 -6 4 3 13 0 21 -6 16 -14 36 -7 36
12 0 7 -4 6 -10 -3 -5 -8 -12 -11 -16 -7 -10 10 16 38 29 30 6 -3 7 -1 3 6 -6
9 -11 9 -23 -1 -14 -11 -15 -10 -9 10 6 18 4 21 -11 15 -10 -3 -15 -3 -11 1 3
4 12 8 20 10 7 1 20 6 28 11 13 8 13 7 0 -10 -8 -10 -10 -16 -3 -12 7 4 14 -1
18 -14 4 -11 9 -18 12 -16 2 3 0 15 -7 26 -12 23 -2 28 20 8 12 -10 12 -9 1 5
-7 10 -11 19 -7 19 3 1 10 2 15 3 5 0 13 5 18 10 4 5 3 6 -3 3 -7 -4 -14 0
-17 7 -7 17 18 40 32 31 7 -3 8 0 5 9 -3 9 -10 13 -15 10 -11 -7 -4 56 7 65
22 15 33 48 21 62 -10 11 -9 11 5 1 11 -9 18 -10 23 -2 9 14 -4 32 -18 24 -7
-4 -8 -3 -4 1 4 5 14 10 21 11 17 2 14 -45 -4 -56 -8 -5 -7 -9 5 -14 9 -3 13
-10 10 -16 -3 -5 -1 -10 5 -10 7 0 10 6 7 14 -3 8 -1 17 6 20 9 3 9 5 0 5 -18
1 -16 21 2 21 8 0 15 5 15 11 0 5 4 7 10 4 6 -3 7 1 4 9 -4 11 2 19 17 26 22
10 22 10 2 6 -24 -4 -40 21 -24 37 5 5 7 17 4 26 -4 12 -2 11 9 -3 10 -13 17
-15 22 -7 5 8 13 8 26 1 13 -7 21 -7 26 2 4 7 4 10 -1 6 -4 -4 -14 0 -22 10
-8 9 -12 12 -9 7 2 -6 -4 -11 -14 -11 -10 0 -16 6 -13 12 2 7 13 11 24 9 10
-2 19 1 19 6 0 6 5 7 12 3 6 -4 8 -3 5 3 -9 14 -51 10 -73 -7 -18 -14 -18 -14
0 7 10 13 22 20 27 18 4 -3 10 -1 14 4 3 6 12 8 20 4 8 -3 15 0 15 7 0 6 4 9
8 6 5 -3 19 6 30 19 12 14 17 25 11 25 -5 0 -7 5 -4 10 5 8 11 7 21 -1 10 -8
14 -8 14 0 0 6 -4 11 -10 11 -5 0 -10 5 -10 11 0 5 5 7 10 4 6 -3 10 -3 11 2
0 4 2 16 4 26 3 14 1 16 -10 7 -8 -7 -17 -20 -20 -31 -4 -11 -10 -17 -15 -14
-5 3 -7 -4 -5 -15 3 -13 0 -18 -7 -14 -7 4 -8 3 -4 -4 5 -8 1 -10 -10 -5 -11
4 -13 8 -6 11 7 2 10 8 7 12 -3 5 4 15 15 23 11 7 17 17 13 20 -3 4 -1 7 5 7
6 0 9 8 6 17 -5 14 -4 15 4 4 7 -9 12 -10 16 -2 13 20 34 12 30 -11 -4 -21 -4
-21 4 -3 5 11 7 26 4 34 -4 10 -1 12 8 6 9 -5 11 -4 6 4 -4 6 -13 8 -19 4 -15
-9 -53 -16 -45 -7 3 3 14 7 24 8 10 2 20 9 22 16 3 8 0 10 -8 5 -9 -6 -11 -4
-6 4 6 9 13 8 27 -5 10 -9 19 -12 19 -7 0 6 -7 16 -15 23 -8 7 -15 17 -15 23
0 6 7 2 15 -9 11 -15 14 -16 15 -4 0 9 -5 21 -12 28 -9 9 -9 12 0 12 7 0 12
-5 12 -11 0 -5 5 -7 10 -4 8 5 7 12 -2 23 -11 13 -11 14 1 7 11 -6 13 -3 9 13
-5 20 -4 20 15 10 24 -13 89 -19 81 -7 -2 4 -13 6 -24 4 -11 -2 -22 0 -25 6
-4 5 -1 9 4 9 6 0 11 7 11 15 0 8 3 14 8 14 19 -3 32 2 32 12 0 8 -6 7 -17 -2
-15 -12 -16 -12 -10 3 4 11 0 21 -11 27 -15 9 -14 10 5 8 12 0 20 -4 18 -7 -2
-4 2 -7 8 -7 15 0 17 41 3 54 -5 4 -7 1 -4 -7 4 -11 -1 -16 -12 -17 -17 -2
-17 0 2 23 22 24 34 32 23 14 -3 -5 1 -10 10 -10 10 0 13 -5 9 -12 -6 -10 -3
-9 8 0 9 8 14 20 11 29 -4 10 -8 11 -13 3 -5 -8 -9 -7 -14 5 -3 9 -10 14 -15
10 -5 -3 -12 -1 -15 4 -7 10 13 9 31 -2 6 -4 14 -3 18 3 3 5 2 10 -4 10 -5 0
-9 9 -8 20 1 11 5 20 10 20 5 0 7 -7 4 -15 -9 -22 8 -26 21 -4 10 15 10 19 0
19 -7 0 -5 5 5 11 12 7 16 18 12 37 -5 26 -5 26 5 4 5 -13 8 -28 5 -33 -4 -5
1 -6 9 -3 12 5 13 10 5 26 -8 15 -8 19 0 14 6 -4 11 -2 11 3 0 6 -5 11 -12 11
-6 0 -9 2 -6 5 3 3 13 3 22 -1 11 -4 13 -10 7 -18 -6 -7 -4 -20 6 -36 10 -17
12 -19 8 -5 -11 34 -10 37 4 43 9 3 11 0 6 -8 -5 -9 -4 -11 4 -6 9 6 9 11 1
21 -8 10 -4 18 17 34 20 15 22 19 8 14 -18 -6 -18 -5 -6 10 10 13 17 15 27 6
25 -21 15 0 -13 27 -16 15 -22 23 -15 20 6 -4 12 -2 12 3 0 6 5 11 11 11 8 0
7 -6 -2 -17 -8 -10 -9 -14 -2 -10 6 4 14 3 18 -3 3 -5 11 -10 18 -10 6 0 2 7
-9 15 -10 8 -15 15 -10 15 5 0 3 7 -4 15 -7 8 -17 12 -23 8 -6 -3 -7 -1 -3 5
9 16 58 -16 49 -32 -4 -7 -1 -6 7 1 11 10 10 16 -8 32 -19 16 -20 20 -7 25 9
3 14 2 11 -2 -3 -4 3 -13 13 -19 14 -9 17 -7 19 11 1 16 -1 18 -8 6 -8 -13
-10 -13 -10 -1 0 8 -7 22 -15 31 -14 15 -13 17 9 16 14 -1 29 -6 33 -10 4 -5
3 -6 -4 -2 -6 3 -15 1 -19 -6 -4 -7 -4 -10 1 -6 4 4 16 3 27 -3 18 -10 19 -9
7 13 -7 13 -12 26 -11 30 1 4 -6 5 -16 2 -14 -5 -15 -4 -2 5 21 15 40 14 34
-3 -7 -18 15 -31 28 -18 8 8 8 15 -1 26 -8 10 -9 16 -1 21 6 3 8 11 5 16 -3 5
1 6 9 3 18 -7 20 4 5 26 -9 13 -10 12 -5 -2 3 -12 1 -15 -9 -11 -12 4 -11 11
8 33 12 16 29 29 37 29 10 0 7 -5 -8 -17 -20 -16 -22 -20 -9 -31 12 -9 17 -9
23 0 4 7 3 9 -4 5 -6 -3 -13 -2 -16 3 -4 5 3 12 14 16 33 10 24 40 -10 37 -3
0 -6 7 -6 16 0 12 9 17 27 17 15 1 25 -3 23 -7 -3 -5 -9 -6 -14 -3 -5 3 -11 1
-14 -4 -4 -5 2 -8 11 -7 10 2 22 -2 26 -8 6 -7 7 -6 4 4 -2 8 5 21 17 28 20
12 20 13 1 8 -11 -3 -27 -1 -35 4 -11 7 -11 10 -2 10 7 0 10 5 6 11 -5 8 -1 8
14 0 14 -7 23 -8 27 -1 4 6 10 8 15 5 5 -3 14 4 20 16 8 13 8 19 1 15 -5 -4
-15 3 -21 14 -8 15 -8 25 3 40 8 11 17 17 20 13 4 -3 7 -1 7 4 0 6 -6 14 -12
16 -10 4 -10 6 -1 6 6 1 14 -3 17 -8 8 -13 -4 -42 -14 -36 -14 9 -23 -16 -11
-28 9 -9 11 -8 6 5 -5 13 -2 16 12 14 13 -3 19 2 20 16 3 30 23 49 47 43 15
-5 17 -4 7 3 -9 7 -10 12 -2 16 14 9 14 26 1 26 -5 0 -9 -6 -7 -12 4 -22 -25
-14 -42 11 -15 24 -15 24 8 12 25 -14 44 -5 21 9 -8 6 -10 10 -4 10 5 0 21 14
34 32 20 28 21 31 4 24 -14 -5 -16 -4 -7 5 16 16 38 2 23 -16 -8 -9 -8 -15 0
-20 15 -9 1 -27 -17 -21 -9 4 -11 2 -7 -6 5 -7 3 -8 -6 -3 -9 5 -11 4 -6 -4 7
-11 18 -8 44 12 9 7 9 13 2 22 -8 9 -8 15 0 20 5 3 10 1 10 -4 0 -6 5 -11 11
-11 8 0 8 4 -1 15 -6 8 -9 19 -6 24 4 5 1 13 -5 17 -8 4 -9 3 -5 -4 4 -7 5
-12 2 -12 -3 0 -10 10 -17 21 -7 15 -8 19 0 15 11 -7 60 23 61 37 0 5 -4 6 -8
3 -5 -3 -9 1 -9 9 0 8 3 13 6 12 3 -1 6 2 6 6 0 5 8 13 18 19 15 8 16 12 5 26
-12 16 -11 16 6 2 18 -14 19 -13 13 2 -3 10 -3 20 2 22 4 3 8 0 8 -7 0 -7 4
-21 8 -32 6 -16 5 -17 -4 -5 -9 12 -11 10 -9 -10 2 -18 -2 -25 -14 -24 -10 1
-15 -2 -13 -7 3 -4 -3 -17 -15 -29 -11 -11 -16 -20 -11 -20 5 0 13 -9 16 -21
4 -11 9 -18 12 -16 2 3 -1 15 -7 27 -10 19 -9 22 10 27 16 4 18 8 8 14 -10 7
-9 9 5 9 9 0 17 4 17 10 0 5 6 8 13 6 6 -1 9 -1 5 1 -5 3 -8 9 -8 14 0 6 5 7
10 4 6 -4 10 -3 9 2 -1 4 0 11 1 16 1 4 3 10 5 15 12 44 39 95 43 83 2 -6 8
-11 13 -11 4 0 5 7 2 17 -4 11 -3 14 5 9 7 -4 12 -2 12 4 0 17 -34 7 -46 -13
-9 -17 -12 -17 -24 -2 -11 13 -10 15 6 8 17 -6 17 -5 5 10 -12 16 -12 17 5 10
16 -6 17 -4 6 9 -10 13 -10 17 2 21 10 4 13 1 10 -7 -3 -8 -1 -17 5 -21 6 -3
12 1 12 9 1 9 2 22 3 29 1 6 -3 16 -9 20 -6 5 -3 7 7 4 9 -3 19 -1 21 6 3 7 4
2 4 -10 -1 -12 -4 -20 -7 -18 -3 2 -7 -6 -7 -17 -2 -20 -1 -20 12 -2 7 10 11
22 9 26 -3 5 5 9 18 9 17 1 18 3 6 6 -10 2 -18 9 -18 14 0 6 9 7 20 4 20 -6
25 4 21 48 -1 9 3 17 10 17 7 0 4 7 -7 15 -18 14 -18 14 4 8 12 -3 22 -10 22
-17 0 -6 6 -2 12 9 11 19 11 19 19 0 6 -17 6 20 0 68 -1 5 -6 5 -13 1 -7 -4
-8 -3 -4 5 4 6 12 8 18 5 7 -5 9 -2 6 7 -4 10 2 15 18 17 17 1 22 -2 17 -14
-4 -11 -8 -12 -13 -4 -5 8 -9 7 -13 -3 -4 -10 0 -14 11 -13 9 2 18 8 20 14 2
7 9 9 15 5 6 -3 2 5 -9 20 -12 16 -23 22 -29 16 -12 -12 -25 -12 -25 1 0 6 3
9 8 9 4 -1 9 0 12 1 20 7 39 6 37 -2 -1 -6 5 -13 13 -15 13 -4 13 -3 0 6 -13
9 -12 11 5 11 17 1 17 2 -5 13 -28 13 -40 40 -13 30 10 -4 14 -2 10 4 -4 6 -3
13 3 15 5 1 11 14 13 27 2 14 9 27 15 29 7 2 9 9 6 15 -5 9 -3 8 6 0 9 -8 19
-9 32 -2 12 6 18 6 18 -1 0 -5 5 -10 11 -10 8 0 8 4 0 14 -10 12 -8 17 9 26
11 6 18 15 15 20 -3 5 7 16 22 25 27 15 27 15 3 9 -22 -6 -23 -5 -11 10 7 9
20 16 27 16 8 0 14 5 14 11 0 5 -4 7 -10 4 -5 -3 -14 -4 -20 0 -11 7 -2 35 12
35 6 0 4 -8 -3 -17 -13 -16 -12 -17 3 -5 14 11 18 10 27 -5 6 -10 10 -13 11
-8 0 15 -12 30 -35 44 -17 11 -17 12 -2 7 12 -4 17 -2 14 6 -2 7 -11 12 -20
10 -8 -1 -18 2 -22 8 -4 6 1 7 11 3 12 -4 15 -3 10 5 -5 8 -2 10 8 6 9 -3 16
-10 16 -16 0 -5 5 -6 10 -3 7 4 7 12 0 25 -15 28 -12 32 8 13 11 -11 15 -22
10 -29 -4 -6 -4 -15 0 -19 4 -5 1 -5 -5 -1 -7 4 -13 3 -13 -2 0 -6 7 -13 16
-16 8 -3 12 -2 9 3 -3 5 -1 12 4 15 11 7 9 24 -8 56 l-14 25 23 -20 23 -20
-11 21 c-6 12 -8 25 -4 29 4 5 -2 5 -13 2 -19 -7 -19 -6 -1 7 10 9 15 20 10
27 -4 7 -3 10 4 5 6 -3 16 3 22 14 10 18 7 24 -12 21 -5 0 -8 3 -8 9 0 13 13
13 27 -1 7 -7 11 -3 11 15 0 16 -5 23 -12 19 -6 -3 -7 -2 -3 3 5 5 13 10 18
10 5 1 15 2 22 3 7 1 5 7 -7 16 -17 13 -14 14 22 10 29 -2 42 1 46 11 3 9 10
13 15 10 5 -3 11 0 14 8 4 10 0 12 -14 9 -10 -3 -19 -10 -19 -17 0 -6 -5 -4
-11 4 -9 12 -10 12 -5 -4 5 -14 3 -16 -6 -9 -7 6 -21 9 -31 7 -11 -1 -16 1
-12 4 6 7 11 8 37 11 6 0 8 4 5 8 -4 3 0 14 9 24 12 14 13 22 4 39 -6 12 -9
24 -7 27 3 2 8 -5 12 -16 7 -23 25 -19 25 5 0 8 -4 13 -8 10 -4 -2 -8 4 -8 15
0 18 2 19 12 4 7 -9 15 -12 18 -7 3 5 2 12 -1 16 -4 3 -7 15 -8 25 -1 13 4 17
17 13 18 -4 18 -5 1 -18 -17 -13 -17 -14 0 -8 10 4 17 1 17 -6 0 -6 -6 -8 -12
-4 -7 4 -10 4 -6 -1 4 -4 3 -14 -3 -22 -6 -7 -8 -13 -4 -13 5 0 0 -9 -10 -20
-10 -11 -14 -20 -9 -20 5 0 2 -5 -6 -11 -12 -8 -10 -9 9 -4 18 6 22 4 16 -6
-5 -8 -4 -10 0 -6 17 15 14 36 -3 29 -15 -5 -15 -4 -3 11 7 9 17 14 22 11 5
-3 9 0 9 5 0 6 -5 11 -11 11 -5 0 -8 4 -4 10 3 5 13 7 23 4 13 -5 14 -4 3 4
-11 8 -9 14 10 33 14 14 16 20 7 16 -22 -8 -30 3 -13 19 8 8 12 24 10 37 -4
21 -3 21 10 4 7 -11 11 -26 8 -35 -4 -14 -3 -15 5 -3 7 10 7 21 0 34 -9 17 -7
18 14 12 12 -4 20 -4 15 0 -4 5 -17 9 -29 10 -17 1 -23 9 -25 28 -1 15 3 29 8
33 6 4 6 11 -2 20 -9 12 -9 13 3 9 9 -4 15 0 15 10 0 9 -6 14 -14 11 -8 -3
-12 -2 -9 3 3 5 17 9 32 9 17 0 22 -3 13 -8 -12 -8 -19 -28 -22 -62 -1 -9 -4
-15 -7 -13 -4 2 -7 -2 -7 -10 0 -8 4 -12 8 -9 5 3 19 0 31 -7 l23 -11 -22 21
c-27 25 -29 33 -8 25 8 -4 15 -1 15 6 0 6 -4 8 -10 5 -5 -3 -10 1 -10 10 0 9
4 14 9 10 5 -3 12 -1 16 5 4 6 11 7 17 4 7 -4 8 -2 4 5 -6 9 -11 9 -21 1 -8
-7 -16 -7 -19 -2 -3 6 1 13 10 16 8 3 13 10 9 15 -3 6 7 9 25 6 17 -2 28 0 24
6 -3 5 -9 7 -14 4 -12 -8 -41 6 -34 16 3 5 11 6 17 2 7 -4 5 2 -3 12 -14 17
-13 18 4 12 16 -6 17 -5 6 8 -10 12 -15 13 -21 3 -4 -6 -5 -16 -2 -22 3 -5 1
-6 -5 -2 -7 4 -10 0 -7 -12 2 -13 -3 -18 -18 -19 -12 0 -16 1 -9 4 6 3 10 8 7
13 -3 5 2 15 11 24 8 9 13 20 9 25 -3 6 5 8 20 5 14 -2 25 0 25 6 0 6 -4 8
-10 5 -5 -3 -10 1 -10 10 0 9 5 13 10 10 11 -7 13 3 12 48 0 18 3 25 11 20 8
-4 7 -1 -1 9 -11 14 -11 18 0 25 7 4 20 17 28 28 14 18 14 19 -2 7 -11 -9 -18
-10 -23 -2 -3 5 0 10 7 10 10 0 10 2 -1 9 -9 6 -10 11 -2 15 6 4 16 4 22 0 8
-4 8 0 0 15 -7 11 -9 21 -5 21 3 0 1 7 -7 16 -10 13 -10 17 0 24 10 5 10 9 2
15 -8 4 -9 11 -3 18 5 7 9 19 9 28 0 13 -8 16 -36 13 -24 -2 -31 0 -21 6 8 5
18 6 22 4 4 -3 8 -1 8 4 0 6 8 9 18 7 9 -1 11 0 5 2 -10 3 -9 12 3 35 9 17 11
27 4 23 -6 -4 -17 -2 -25 5 -10 8 -15 8 -21 -1 -4 -7 -3 -9 4 -5 7 4 10 -1 7
-14 -2 -11 0 -18 6 -15 5 4 9 2 9 -4 0 -19 -15 -18 -35 1 -20 19 -20 19 0 13
16 -6 16 -3 -5 14 -15 13 -18 19 -8 15 14 -5 16 -1 12 21 -3 19 -1 26 8 22 7
-2 12 -9 11 -15 -1 -5 4 -12 11 -15 10 -4 12 1 8 15 -3 12 -1 19 4 15 6 -3 10
5 10 18 0 14 -2 22 -5 19 -4 -3 -6 -11 -6 -16 0 -6 -6 -13 -13 -16 -7 -2 -10
2 -6 12 3 9 1 16 -6 16 -6 0 -8 5 -5 10 4 6 11 8 16 4 6 -3 1 12 -10 33 -15
31 -17 43 -8 52 9 10 8 11 -7 5 -14 -5 -17 -4 -11 5 5 10 2 11 -12 7 -12 -4
-25 -1 -33 9 -7 9 -8 15 -2 15 6 0 9 8 7 18 -2 9 -4 19 -4 22 -1 3 -6 -2 -11
-10 -8 -11 -9 -8 -6 13 3 19 0 30 -10 34 -9 3 -12 12 -8 25 4 15 3 19 -7 13
-8 -3 -4 2 9 13 24 22 31 42 8 22 -11 -9 -19 -9 -33 0 -16 10 -16 11 -1 6 10
-3 20 0 24 6 5 7 3 8 -5 4 -8 -5 -12 -3 -10 5 3 26 -1 37 -17 43 -13 5 -14 4
-6 -7 7 -8 8 -18 4 -22 -4 -5 -1 -5 7 0 10 6 12 4 7 -4 -6 -9 -11 -9 -22 0 -7
6 -12 15 -9 19 3 5 1 11 -5 15 -6 4 -8 10 -5 15 3 4 -2 11 -11 14 -8 3 -12 10
-9 16 3 5 1 10 -4 10 -6 0 -11 6 -11 13 0 8 -9 22 -20 32 -23 20 -17 39 10 30
10 -3 21 -1 25 4 4 7 -1 8 -11 4 -12 -5 -15 -3 -9 6 6 10 3 11 -13 2 -11 -6
-23 -11 -26 -11 -9 0 -2 24 9 33 6 5 0 6 -12 2 -12 -3 -25 -1 -29 6 -4 7 -3 9
2 6 6 -3 10 5 10 19 0 13 -4 24 -9 24 -5 0 -7 -7 -3 -15 7 -20 -8 -19 -25 2
-8 9 -9 14 -2 10 7 -5 9 0 6 14 -3 11 -9 16 -12 11 -4 -6 -11 -4 -19 4 -10 12
-10 14 3 14 8 0 15 5 15 11 0 5 -5 7 -10 4 -13 -8 -60 21 -60 36 0 6 5 7 10 4
16 -10 11 1 -7 16 -11 10 -14 10 -9 2 10 -17 -2 -16 -19 1 -8 7 -11 16 -8 20
4 3 1 6 -6 6 -7 0 -9 4 -6 10 4 6 -1 7 -12 3 -16 -6 -17 -5 -3 12 8 10 10 16
3 12 -21 -13 -44 4 -38 27 5 15 4 17 -3 7 -8 -11 -23 -3 -74 40 -34 30 -65 57
-68 60 -3 3 -35 26 -72 51 -38 24 -65 48 -60 53 4 5 2 5 -4 2 -7 -4 -27 4 -46
17 -31 21 -262 137 -270 135 -1 0 -93 -68 -203 -150z m-613 -663 c6 4 8 2 4
-4 -3 -6 0 -17 9 -25 13 -13 13 -16 0 -21 -9 -3 -20 3 -27 13 -7 11 -18 17
-27 13 -10 -4 -8 1 5 14 10 11 21 16 22 12 2 -5 9 -5 14 -2z m1862 -253 c3
-10 5 -22 5 -27 0 -5 5 -12 12 -17 10 -6 10 -11 1 -21 -9 -11 -9 -17 0 -26 9
-9 9 -12 0 -12 -7 0 -12 5 -12 11 0 5 -4 8 -8 5 -5 -3 -9 1 -9 9 0 8 4 12 9 9
4 -3 8 2 8 11 0 13 -4 14 -22 5 -19 -9 -21 -9 -8 2 19 16 27 53 9 42 -7 -4
-10 -3 -5 4 3 6 -2 13 -11 15 -14 4 -13 5 4 6 13 1 24 -6 27 -16z m-4 -109 c0
-8 -19 -13 -24 -6 -3 5 1 9 9 9 8 0 15 -2 15 -3z m-1350 -19 c0 -8 -2 -15 -4
-15 -2 0 -6 7 -10 15 -3 8 -1 15 4 15 6 0 10 -7 10 -15z m1370 -89 c0 -2 -7
-7 -16 -10 -8 -3 -12 -2 -9 4 6 10 25 14 25 6z m34 -67 c-10 -17 -13 -51 -5
-64 9 -15 8 -29 -3 -44 -14 -18 -16 -40 -5 -47 6 -3 5 -12 -3 -21 -7 -9 -13
-26 -13 -37 -1 -12 -4 -27 -8 -33 -5 -8 -4 -13 2 -13 6 0 2 -9 -9 -20 -11 -11
-25 -20 -32 -20 -6 0 -3 7 8 16 16 13 16 15 2 10 -11 -3 -17 0 -15 7 1 7 -4
11 -11 9 -8 -1 -11 2 -7 9 5 8 10 8 18 0 25 -25 33 2 9 31 -9 12 -9 15 3 15 8
0 12 -4 9 -8 -2 -4 0 -10 5 -13 5 -3 11 1 15 9 3 8 -2 18 -11 23 -13 8 -13 11
6 24 11 8 18 18 14 21 -3 4 -12 2 -20 -4 -7 -6 -13 -7 -13 -3 0 5 9 15 21 22
16 11 18 16 9 27 -7 8 -16 13 -20 10 -4 -3 -14 3 -21 13 -13 15 -12 16 4 3 9
-7 17 -10 17 -6 0 4 7 2 15 -5 8 -7 15 -10 15 -7 0 3 3 13 6 21 5 12 2 15 -10
10 -9 -3 -16 -1 -16 6 0 6 -4 9 -8 6 -4 -2 -8 4 -8 15 0 19 1 18 18 -3 11 -15
18 -18 18 -9 0 8 -7 23 -17 33 -9 11 -11 18 -5 18 7 0 12 -5 12 -11 0 -5 5 -7
10 -4 8 5 8 11 0 20 -8 10 -7 14 2 18 18 6 32 -9 22 -24z m-91 -324 c-3 -9 -8
-14 -10 -11 -3 3 -2 9 2 15 9 16 15 13 8 -4z m-40 -204 c3 -11 -1 -22 -8 -24
-8 -4 -10 3 -7 19 5 29 8 30 15 5z m-24 -51 c4 0 11 3 17 8 5 4 4 1 -2 -7 -15
-16 -34 -6 -33 17 1 15 2 15 6 0 2 -10 8 -18 12 -18z m-71 -135 c-3 -3 -9 2
-12 12 -6 14 -5 15 5 6 7 -7 10 -15 7 -18z m-152 -253 c-17 -16 -18 -16 -5 5
7 12 15 20 18 17 3 -2 -3 -12 -13 -22z m-47 -164 c-14 -12 -16 -18 -8 -18 12
0 12 -2 0 -9 -7 -5 -11 -14 -7 -20 5 -7 1 -8 -10 -4 -11 4 -15 3 -10 -5 3 -6
-2 -16 -13 -21 -25 -14 -31 -14 -31 0 0 5 3 8 8 6 4 -2 17 9 30 24 24 30 20
38 -8 17 -9 -7 -6 -4 5 7 12 12 20 27 17 35 -3 13 -2 13 7 0 5 -8 13 -11 17
-7 4 4 -1 17 -12 29 l-19 22 27 -20 27 -19 -20 -17z m-209 -254 c0 -8 -19 -13
-24 -6 -3 5 1 9 9 9 8 0 15 -2 15 -3z m-30 -49 c-12 -14 -10 -15 13 -11 15 3
27 0 27 -5 0 -5 -4 -9 -10 -9 -5 0 -9 -4 -7 -9 1 -5 -2 -9 -8 -9 -5 0 -9 5 -7
10 2 6 -4 8 -12 5 -8 -3 -13 0 -12 6 2 15 16 37 23 37 3 0 0 -7 -7 -15z m-36
-77 c-3 -5 0 -16 8 -25 11 -14 11 -16 -1 -8 -11 6 -13 4 -8 -9 6 -14 4 -15
-16 -5 -28 15 -37 24 -15 16 10 -3 20 -2 23 3 4 6 2 10 -3 10 -5 0 -9 6 -9 13
0 8 6 14 13 14 7 0 11 -4 8 -9z m-111 -202 c-8 -11 -13 -32 -15 -53 -1 -7 -5
-13 -10 -13 -5 0 -8 8 -6 18 1 9 -1 23 -5 30 -5 8 -4 11 4 10 6 -2 14 3 17 11
3 9 0 11 -8 6 -8 -5 -11 -4 -6 3 4 6 13 9 21 6 8 -4 12 -11 8 -18z m-2957 -35
c15 -12 21 -22 14 -26 -13 -8 -42 14 -35 25 3 5 -1 11 -7 13 -7 3 -9 6 -5 6 5
1 20 -8 33 -18z m2834 -101 c0 -5 -5 -10 -11 -10 -5 0 -7 5 -4 10 3 6 8 10 11
10 2 0 4 -4 4 -10z m-95 -110 c-3 -5 -1 -10 6 -10 7 0 10 -3 6 -6 -9 -9 -28 6
-22 17 4 5 8 9 11 9 3 0 2 -4 -1 -10z m-21 -92 c-5 -8 -2 -9 11 -4 15 5 16 4
5 -9 -11 -13 -15 -13 -21 -3 -12 18 -11 28 2 28 5 0 7 -5 3 -12z m-57 -43 c0
-8 -4 -12 -9 -9 -5 3 -6 10 -3 15 9 13 12 11 12 -6z m11 -67 c14 -14 16 -32 3
-23 -5 3 -12 1 -16 -5 -4 -6 -11 -8 -16 -4 -6 3 -3 12 8 21 17 14 17 14 -2 8
-45 -16 -49 -16 -25 -1 31 19 33 19 48 4z m-126 -115 c-6 -2 -10 -8 -8 -12 3
-4 -1 -8 -9 -8 -11 0 -12 4 -4 14 6 7 17 13 23 12 7 0 6 -2 -2 -6z m-18 -94
c-6 -10 -40 -7 -51 5 -5 4 -3 7 2 6 23 -5 36 1 29 13 -5 8 -3 8 9 -2 9 -7 14
-17 11 -22z m6 -39 c0 -5 -4 -10 -10 -10 -5 0 -10 5 -10 10 0 6 5 10 10 10 6
0 10 -4 10 -10z m-103 -46 c-3 -3 -12 -4 -19 -1 -8 3 -5 6 6 6 11 1 17 -2 13
-5z m-43 -90 c13 -5 14 -9 5 -20 -14 -17 -29 -18 -29 -3 0 5 5 7 10 4 6 -3 10
-2 10 4 0 5 -6 12 -12 14 -7 3 -10 6 -6 6 3 1 14 -2 22 -5z m-13 -51 c3 1 -1
-4 -7 -12 -9 -10 -17 -10 -30 -2 -18 10 -18 10 -1 11 12 0 16 4 11 13 -6 9 -5
9 8 0 8 -7 17 -12 19 -10z m-1837 -84 c-3 -5 -10 -7 -15 -3 -5 3 -7 10 -3 15
3 5 10 7 15 3 5 -3 7 -10 3 -15z m1626 -163 c0 -3 -4 -8 -10 -11 -5 -3 -10 -1
-10 4 0 6 5 11 10 11 6 0 10 -2 10 -4z m15 -26 c-8 -40 -35 -58 -32 -21 1 11
6 17 14 14 8 -3 13 -2 12 3 -2 13 0 24 5 24 3 0 3 -9 1 -20z m-118 -115 c0 -8
-4 -12 -9 -9 -5 3 -6 10 -3 15 9 13 12 11 12 -6z m-17 -39 c0 -3 -4 -8 -10
-11 -5 -3 -10 -1 -10 4 0 6 5 11 10 11 6 0 10 -2 10 -4z m-45 -55 c3 -5 2 -12
-3 -15 -5 -3 -9 1 -9 9 0 17 3 19 12 6z m-15 -109 c0 -10 -38 -13 -44 -3 -3 3
6 8 20 9 13 1 24 -2 24 -6z m-129 -115 c-10 -9 -11 -8 -5 6 3 10 9 15 12 12 3
-3 0 -11 -7 -18z m-2193 -42 c-3 -3 -9 2 -12 12 -6 14 -5 15 5 6 7 -7 10 -15
7 -18z m2185 8 c-4 -10 -2 -14 5 -9 18 11 22 -10 6 -30 -12 -15 -14 -15 -11
-3 3 9 1 21 -5 27 -6 6 -7 15 -4 21 11 17 16 13 9 -6z m-118 -113 c-3 -5 -12
-10 -18 -10 -7 0 -6 4 3 10 19 12 23 12 15 0z m10 -71 c-6 -16 -4 -20 6 -14 9
5 8 1 -2 -11 -9 -10 -14 -24 -12 -31 7 -20 -18 -26 -35 -9 -16 16 -16 18 3 34
12 9 24 25 28 35 9 24 20 21 12 -4z m-60 -69 c3 -5 1 -10 -4 -10 -6 0 -11 5
-11 10 0 6 2 10 4 10 3 0 8 -4 11 -10z m-31 -61 c-2 -4 2 -9 8 -12 7 -3 4 -5
-8 -4 -22 1 -30 24 -8 24 7 0 11 -4 8 -8z m-60 -81 c-3 -4 0 -8 7 -8 7 0 10
-2 7 -5 -7 -7 -38 5 -38 14 0 4 7 8 15 8 8 0 12 -4 9 -9z m-44 -78 c0 -5 -2
-10 -4 -10 -3 0 -8 5 -11 10 -3 6 -1 10 4 10 6 0 11 -4 11 -10z m5 -40 c-3 -5
-13 -6 -21 -3 -12 4 -13 8 -3 14 15 9 32 2 24 -11z m-92 -61 c-8 -8 -13 -7
-18 2 -5 8 -4 10 3 5 7 -4 12 -2 12 5 0 7 3 9 7 6 4 -4 2 -12 -4 -18z m7 -63
c0 -3 -4 -8 -10 -11 -5 -3 -10 -1 -10 4 0 6 5 11 10 11 6 0 10 -2 10 -4z m-60
-30 c0 -2 -7 -7 -16 -10 -8 -3 -12 -2 -9 4 6 10 25 14 25 6z m-45 -35 c3 -5 2
-12 -3 -15 -5 -3 -9 1 -9 9 0 17 3 19 12 6z m-130 -171 c3 -6 -1 -7 -9 -4 -18
7 -21 14 -7 14 6 0 13 -4 16 -10z m15 -40 c0 -5 -4 -10 -10 -10 -5 0 -10 5
-10 10 0 6 5 10 10 10 6 0 10 -4 10 -10z m0 -24 c21 3 22 2 7 -7 -9 -6 -15
-14 -13 -18 6 -9 -30 -51 -44 -51 -6 0 -10 8 -10 18 0 14 2 15 10 2 5 -8 10
-13 11 -10 0 3 2 13 4 23 2 12 -1 17 -9 14 -7 -3 -13 1 -13 8 0 8 7 11 16 7
14 -5 14 -4 1 14 -13 17 -13 18 0 8 8 -6 26 -10 40 -8z m-120 -116 c0 -5 -5
-10 -11 -10 -5 0 -7 5 -4 10 3 6 8 10 11 10 2 0 4 -4 4 -10z m-140 -194 c0 -2
-7 -7 -16 -10 -8 -3 -12 -2 -9 4 6 10 25 14 25 6z m-125 -194 c-3 -3 -11 0
-18 7 -9 10 -8 11 6 5 10 -3 15 -9 12 -12z m12 -35 c0 -8 -6 -14 -13 -14 -7 0
-10 6 -7 14 3 7 8 13 12 13 4 0 8 -6 8 -13z m-37 -51 c0 -2 -7 -7 -16 -10 -8
-3 -12 -2 -9 4 6 10 25 14 25 6z m5 -36 c-3 -5 -13 -6 -21 -3 -12 4 -13 8 -3
14 15 9 32 2 24 -11z m-93 -37 c-6 -2 -9 -10 -6 -15 4 -7 2 -8 -5 -4 -13 9 -5
26 12 25 9 0 8 -2 -1 -6z"/>
<path d="M4710 5920 c6 -11 13 -20 16 -20 2 0 0 9 -6 20 -6 11 -13 20 -16 20
-2 0 0 -9 6 -20z"/>
<path d="M6600 5240 c-8 -5 -12 -12 -9 -15 4 -3 12 1 19 10 14 17 11 19 -10 5z"/>
<path d="M4574 1856 c-15 -12 -17 -17 -6 -27 6 -7 13 -10 13 -6 1 4 2 10 3 15
1 4 5 13 9 20 11 16 5 15 -19 -2z"/>
<path d="M4089 1128 c-5 -18 -6 -38 -1 -34 7 8 12 36 6 36 -2 0 -4 -1 -5 -2z"/>
<path d="M1410 6120 c11 -21 40 -28 40 -9 0 5 5 7 12 3 7 -5 8 -3 3 5 -5 9
-10 10 -18 2 -13 -13 -30 -15 -23 -2 3 5 -1 12 -9 15 -13 4 -14 2 -5 -14z"/>
<path d="M1447 6078 c-2 -7 5 -26 17 -43 11 -16 21 -32 21 -35 0 -11 35 -54
35 -43 0 6 -7 16 -15 23 -12 10 -13 16 -3 29 7 9 9 13 4 9 -5 -4 -15 0 -24 8
-13 14 -13 17 -1 26 11 8 11 9 -3 4 -10 -3 -20 -1 -23 4 -4 6 -1 10 4 10 6 0
11 5 11 10 0 14 -17 12 -23 -2z"/>
<path d="M6407 6056 c15 -20 32 -36 36 -36 5 0 1 7 -7 16 -9 8 -16 19 -16 22
0 4 -9 13 -21 20 -17 11 -15 6 8 -22z"/>
<path d="M6435 6060 c3 -5 8 -10 11 -10 2 0 4 5 4 10 0 6 -5 10 -11 10 -5 0
-7 -4 -4 -10z"/>
<path d="M6437 6003 c7 -2 15 -3 17 -1 3 2 12 -6 21 -17 16 -20 16 -20 6 0 -5
11 -20 21 -33 22 -13 0 -17 -1 -11 -4z"/>
<path d="M4646 5961 c-4 -5 -2 -12 3 -15 5 -4 12 -2 15 3 4 5 2 12 -3 15 -5 4
-12 2 -15 -3z"/>
<path d="M1525 5941 c-3 -5 -2 -12 3 -15 5 -3 9 1 9 9 0 17 -3 19 -12 6z"/>
<path d="M1550 5940 c0 -5 5 -10 11 -10 5 0 7 5 4 10 -3 6 -8 10 -11 10 -2 0
-4 -4 -4 -10z"/>
<path d="M4650 5901 c0 -6 4 -13 10 -16 6 -3 7 1 4 9 -7 18 -14 21 -14 7z"/>
<path d="M4760 5885 c-9 -11 -9 -15 -1 -15 7 0 9 -5 5 -12 -4 -7 -3 -10 1 -5
8 6 16 47 10 47 -2 0 -8 -7 -15 -15z"/>
<path d="M6523 5868 c3 -9 1 -18 -5 -20 -6 -2 -4 -9 5 -16 12 -10 17 -10 23
-1 5 8 3 9 -6 4 -9 -6 -12 -4 -8 7 4 8 2 21 -4 29 -8 11 -9 11 -5 -3z"/>
<path d="M1595 5860 c-3 -6 -1 -18 5 -27 9 -16 10 -15 5 4 -5 18 -3 22 9 17 9
-3 16 -4 16 -1 0 10 -30 16 -35 7z"/>
<path d="M4670 5860 c0 -5 5 -10 11 -10 5 0 7 5 4 10 -3 6 -8 10 -11 10 -2 0
-4 -4 -4 -10z"/>
<path d="M4734 5856 c1 -8 5 -18 8 -22 4 -3 5 1 4 10 -1 8 -5 18 -8 22 -4 3
-5 -1 -4 -10z"/>
<path d="M4786 5854 c-9 -23 -7 -31 3 -15 8 12 12 12 25 2 9 -8 16 -9 16 -5 0
5 -9 15 -19 21 -16 10 -20 9 -25 -3z"/>
<path d="M6542 5811 c-10 -6 -10 -10 2 -20 8 -7 13 -23 10 -37 -2 -13 0 -24 5
-24 13 0 22 16 14 24 -13 12 -12 38 1 33 7 -3 13 1 13 9 0 17 -9 18 -26 2 -11
-11 -13 -10 -8 5 7 19 7 20 -11 8z"/>
<path d="M1603 5799 c9 -6 15 -14 12 -19 -3 -5 0 -12 6 -16 7 -4 9 -3 5 4 -3
6 2 13 11 15 17 4 17 5 0 6 -10 0 -16 5 -13 9 2 4 -5 9 -17 9 -20 2 -20 1 -4
-8z"/>
<path d="M4847 5779 c7 -7 15 -10 18 -7 3 3 -2 9 -12 12 -14 6 -15 5 -6 -5z"/>
<path d="M6587 5754 c2 -7 12 -15 20 -18 12 -5 13 -4 5 7 -7 8 -10 16 -7 19 3
2 -1 5 -9 5 -8 0 -12 -6 -9 -13z"/>
<path d="M4958 5753 c-9 -2 -19 -11 -22 -20 -5 -12 -4 -13 7 -5 8 7 16 9 19 6
3 -2 8 2 11 11 4 8 5 14 4 14 -1 -1 -9 -3 -19 -6z"/>
<path d="M5004 5716 c-9 -10 -6 -17 16 -29 22 -14 29 -14 33 -4 3 9 -3 13 -17
13 -15 -1 -20 4 -18 17 3 20 1 21 -14 3z"/>
<path d="M1665 5700 c-3 -6 1 -7 9 -4 18 7 21 14 7 14 -6 0 -13 -4 -16 -10z"/>
<path d="M6616 5687 c3 -10 9 -15 12 -12 3 3 0 11 -7 18 -10 9 -11 8 -5 -6z"/>
<path d="M1750 5623 c0 -6 8 -17 18 -24 16 -13 16 -13 2 6 -8 11 -16 22 -17
24 -2 2 -3 0 -3 -6z"/>
<path d="M5090 5620 c0 -5 5 -10 11 -10 5 0 7 5 4 10 -3 6 -8 10 -11 10 -2 0
-4 -4 -4 -10z"/>
<path d="M354 5588 c-4 -7 -4 -10 1 -6 4 4 16 -3 27 -15 l19 -22 -17 28 c-19
31 -20 32 -30 15z"/>
<path d="M1759 5578 c-6 -12 -5 -48 1 -48 4 0 7 11 6 25 -1 22 -3 30 -7 23z"/>
<path d="M1786 5562 c-3 -5 1 -9 9 -9 8 0 12 4 9 9 -3 4 -7 8 -9 8 -2 0 -6 -4
-9 -8z"/>
<path d="M5145 5540 c-3 -6 1 -7 9 -4 18 7 21 14 7 14 -6 0 -13 -4 -16 -10z"/>
<path d="M400 5533 c0 -6 8 -17 18 -24 16 -13 16 -13 2 6 -8 11 -16 22 -17 24
-2 2 -3 0 -3 -6z"/>
<path d="M1777 5521 c-4 -17 -3 -21 5 -13 5 5 8 16 6 23 -3 8 -7 3 -11 -10z"/>
<path d="M5243 5533 c-7 -3 -13 -9 -13 -14 0 -6 5 -7 10 -4 6 3 13 0 16 -9 7
-17 31 -28 38 -17 8 12 -37 49 -51 44z m32 -23 c10 -11 16 -20 13 -20 -3 0
-13 9 -23 20 -10 11 -16 20 -13 20 3 0 13 -9 23 -20z"/>
<path d="M1814 5516 c1 -8 5 -18 8 -22 4 -3 5 1 4 10 -1 8 -5 18 -8 22 -4 3
-5 -1 -4 -10z"/>
<path d="M425 5480 c-3 -5 -1 -10 4 -10 6 0 11 5 11 10 0 6 -2 10 -4 10 -3 0
-8 -4 -11 -10z"/>
<path d="M1812 5473 c-6 -2 -10 -9 -6 -14 8 -14 21 -11 21 6 0 8 -1 15 -1 14
-1 0 -7 -3 -14 -6z"/>
<path d="M5256 5462 c-3 -5 1 -9 9 -9 8 0 12 4 9 9 -3 4 -7 8 -9 8 -2 0 -6 -4
-9 -8z"/>
<path d="M5300 5450 c-9 -6 -10 -10 -3 -10 6 0 15 5 18 10 8 12 4 12 -15 0z"/>
<path d="M435 5440 c3 -5 8 -10 11 -10 2 0 4 5 4 10 0 6 -5 10 -11 10 -5 0 -7
-4 -4 -10z"/>
<path d="M1816 5431 c-4 -5 3 -7 14 -4 23 6 26 13 6 13 -8 0 -17 -4 -20 -9z"/>
<path d="M5296 5422 c-3 -4 4 -9 15 -9 23 -2 25 3 4 10 -8 4 -16 3 -19 -1z"/>
<path d="M474 5401 c0 -11 5 -17 13 -14 10 4 11 9 2 19 -15 18 -15 18 -15 -5z"/>
<path d="M1866 5397 c3 -10 9 -15 12 -12 3 3 0 11 -7 18 -10 9 -11 8 -5 -6z"/>
<path d="M6656 5387 c3 -10 9 -15 12 -12 3 3 0 11 -7 18 -10 9 -11 8 -5 -6z"/>
<path d="M5371 5364 c0 -11 3 -14 6 -6 3 7 2 16 -1 19 -3 4 -6 -2 -5 -13z"/>
<path d="M1851 5367 c2 -2 11 -8 20 -15 12 -9 16 -9 16 1 0 7 -9 14 -20 14
-11 1 -18 1 -16 0z"/>
<path d="M5402 5346 c7 -8 15 -12 17 -11 5 6 -10 25 -20 25 -5 0 -4 -6 3 -14z"/>
<path d="M1910 5339 c0 -5 5 -7 10 -4 6 3 10 8 10 11 0 2 -4 4 -10 4 -5 0 -10
-5 -10 -11z"/>
<path d="M1880 5320 c0 -5 5 -10 10 -10 6 0 10 5 10 10 0 6 -4 10 -10 10 -5 0
-10 -4 -10 -10z"/>
<path d="M1928 5275 c-3 -14 -2 -27 1 -30 4 -2 8 10 9 26 3 36 -4 38 -10 4z"/>
<path d="M540 5246 c0 -2 8 -10 18 -17 15 -13 16 -12 3 4 -13 16 -21 21 -21
13z"/>
<path d="M1980 5155 c7 -8 20 -14 29 -14 13 1 13 2 -1 6 -10 2 -18 9 -18 14 0
5 -5 9 -11 9 -8 0 -8 -5 1 -15z"/>
<path d="M630 5146 c0 -2 7 -7 16 -10 8 -3 12 -2 9 4 -6 10 -25 14 -25 6z"/>
<path d="M2033 5135 c0 -8 4 -12 9 -9 5 3 6 10 3 15 -9 13 -12 11 -12 -6z"/>
<path d="M2013 5091 c12 -20 27 -40 34 -44 7 -5 10 -14 7 -20 -5 -8 -3 -8 7 1
11 10 10 15 -9 28 -23 16 -32 51 -9 38 7 -4 9 -3 4 2 -5 5 -14 9 -20 9 -7 1
-11 6 -10 11 1 6 -4 11 -11 11 -10 0 -8 -10 7 -36z"/>
<path d="M2055 5081 c-3 -5 -2 -12 3 -15 5 -3 9 1 9 9 0 17 -3 19 -12 6z"/>
<path d="M676 5039 c3 -5 9 -7 14 -4 4 3 11 0 13 -5 3 -6 4 -5 3 1 -1 7 -10
13 -19 15 -9 1 -15 -2 -11 -7z"/>
<path d="M747 4947 c-3 -8 3 -14 16 -15 12 0 17 2 12 6 -6 4 -13 11 -16 15 -4
4 -9 2 -12 -6z"/>
<path d="M2133 4895 c0 -8 4 -12 9 -9 4 3 8 9 8 15 0 5 -4 9 -8 9 -5 0 -9 -7
-9 -15z"/>
<path d="M2155 4880 c-3 -5 -1 -10 4 -10 6 0 11 5 11 10 0 6 -2 10 -4 10 -3 0
-8 -4 -11 -10z"/>
<path d="M790 4846 c0 -2 7 -7 16 -10 8 -3 12 -2 9 4 -6 10 -25 14 -25 6z"/>
<path d="M6556 4813 c-6 -14 -5 -15 5 -6 7 7 10 15 7 18 -3 3 -9 -2 -12 -12z"/>
<path d="M2240 4760 c0 -5 5 -10 11 -10 5 0 7 5 4 10 -3 6 -8 10 -11 10 -2 0
-4 -4 -4 -10z"/>
<path d="M873 4747 c0 -8 6 -14 14 -14 9 0 10 4 2 14 -6 7 -12 13 -14 13 -1 0
-2 -6 -2 -13z"/>
<path d="M2268 4698 c-9 -5 -6 -7 9 -5 12 2 25 6 28 8 8 9 -23 6 -37 -3z"/>
<path d="M915 4680 c3 -5 8 -10 11 -10 2 0 4 5 4 10 0 6 -5 10 -11 10 -5 0 -7
-4 -4 -10z"/>
<path d="M2260 4674 c0 -2 9 -8 20 -14 11 -6 20 -7 20 -2 0 6 -9 12 -20 15
-11 3 -20 3 -20 1z"/>
<path d="M6415 4670 c-8 -13 9 -20 24 -11 10 6 9 10 -3 14 -8 3 -18 2 -21 -3z"/>
<path d="M2325 4619 c-4 -6 -4 -13 -1 -16 3 -4 6 -1 6 6 0 7 5 9 12 5 7 -4 8
-3 4 4 -9 15 -13 15 -21 1z"/>
<path d="M958 4603 c7 -3 16 -2 19 1 4 3 -2 6 -13 5 -11 0 -14 -3 -6 -6z"/>
<path d="M6389 4597 c-1 -7 -1 -16 0 -21 1 -5 -5 -6 -13 -3 -17 7 -30 -19 -15
-29 6 -3 3 -12 -8 -20 -16 -13 -15 -14 15 -9 24 4 31 2 26 -6 -4 -8 -3 -9 4
-5 18 11 14 23 -10 30 l-23 6 24 20 c14 13 18 20 10 21 -8 0 -5 4 5 8 18 7 18
8 3 14 -10 4 -17 1 -18 -6z"/>
<path d="M6436 4593 c-6 -14 -5 -15 5 -6 7 7 10 15 7 18 -3 3 -9 -2 -12 -12z"/>
<path d="M2317 4576 c20 -26 27 -28 17 -3 -3 8 -12 18 -20 21 -11 4 -10 0 3
-18z"/>
<path d="M950 4585 c0 -7 30 -13 34 -7 3 4 -4 9 -15 9 -10 1 -19 0 -19 -2z"/>
<path d="M2350 4540 c0 -5 8 -7 18 -4 16 5 16 5 -1 -9 -16 -13 -16 -15 -2 -21
9 -3 13 -2 10 3 -3 5 -1 12 5 16 6 4 8 11 5 16 -8 12 -35 12 -35 -1z"/>
<path d="M2395 4509 c-4 -6 -5 -12 -2 -15 2 -3 7 2 10 11 7 17 1 20 -8 4z"/>
<path d="M6325 4490 c-12 -20 -14 -50 -3 -56 6 -4 8 -3 5 3 -12 20 19 36 45
23 22 -11 22 -10 4 4 -11 9 -24 16 -29 16 -4 0 -5 5 -2 10 3 6 2 10 -4 10 -5
0 -13 -4 -16 -10z"/>
<path d="M2428 4423 c7 -3 16 -2 19 1 4 3 -2 6 -13 5 -11 0 -14 -3 -6 -6z"/>
<path d="M6353 4415 c0 -8 4 -12 9 -9 5 3 6 10 3 15 -9 13 -12 11 -12 -6z"/>
<path d="M6326 4403 c-6 -14 -5 -15 5 -6 7 7 10 15 7 18 -3 3 -9 -2 -12 -12z"/>
<path d="M1093 4385 c0 -8 4 -15 9 -15 4 0 8 4 8 9 0 6 -4 12 -8 15 -5 3 -9
-1 -9 -9z"/>
<path d="M2435 4380 c3 -5 8 -10 11 -10 2 0 4 5 4 10 0 6 -5 10 -11 10 -5 0
-7 -4 -4 -10z"/>
<path d="M2460 4359 c0 -6 -6 -7 -12 -3 -8 4 -8 2 1 -7 10 -11 15 -11 18 -1 3
6 9 10 13 7 5 -3 11 -2 14 3 2 4 -4 9 -15 9 -10 1 -19 -3 -19 -8z"/>
<path d="M2475 4329 c-4 -6 -5 -12 -2 -15 2 -3 7 2 10 11 7 17 1 20 -8 4z"/>
<path d="M2495 4319 c-4 -6 -5 -12 -2 -15 2 -3 7 2 10 11 7 17 1 20 -8 4z"/>
<path d="M2533 4291 c0 -11 5 -18 9 -15 4 3 5 11 1 19 -7 21 -12 19 -10 -4z"/>
<path d="M1160 4270 c6 -11 13 -20 16 -20 2 0 0 9 -6 20 -6 11 -13 20 -16 20
-2 0 0 -9 6 -20z"/>
<path d="M6210 4180 c0 -5 5 -10 11 -10 5 0 7 5 4 10 -3 6 -8 10 -11 10 -2 0
-4 -4 -4 -10z"/>
<path d="M6114 4161 c-5 -3 -10 -15 -12 -26 -2 -11 -9 -29 -17 -40 -11 -18
-10 -21 6 -22 18 -2 22 7 22 49 0 9 6 19 13 22 11 4 13 -1 9 -22 l-5 -27 10
25 c6 13 16 28 23 32 7 4 8 8 2 9 -5 0 -17 2 -26 4 -9 1 -20 0 -25 -4z"/>
<path d="M2577 4135 c21 -28 30 -31 30 -10 0 8 -4 12 -9 9 -4 -3 -8 -1 -8 4 0
6 -7 13 -15 16 -13 5 -12 1 2 -19z"/>
<path d="M2626 4097 c3 -10 9 -15 12 -12 3 3 0 11 -7 18 -10 9 -11 8 -5 -6z"/>
<path d="M2625 4050 c22 -24 20 -25 22 2 2 18 0 20 -7 8 -7 -10 -10 -11 -10
-2 0 6 -5 12 -12 12 -6 0 -3 -9 7 -20z"/>
<path d="M1310 4026 c0 -2 7 -7 16 -10 8 -3 12 -2 9 4 -6 10 -25 14 -25 6z"/>
<path d="M2655 4021 c-3 -6 4 -15 15 -21 13 -7 20 -7 20 0 0 5 -7 10 -16 10
-8 0 -12 5 -9 10 3 6 4 10 1 10 -3 0 -7 -4 -11 -9z"/>
<path d="M6090 4006 c0 -2 7 -7 16 -10 8 -3 12 -2 9 4 -6 10 -25 14 -25 6z"/>
<path d="M2690 3975 c-11 -13 -10 -14 4 -9 9 3 16 10 16 15 0 13 -6 11 -20 -6z"/>
<path d="M6030 3961 c0 -6 4 -12 8 -15 5 -3 9 1 9 9 0 8 -4 15 -9 15 -4 0 -8
-4 -8 -9z"/>
<path d="M5966 3875 c4 -8 8 -15 10 -15 2 0 4 7 4 15 0 8 -4 15 -10 15 -5 0
-7 -7 -4 -15z"/>
<path d="M2738 3861 c8 -4 13 -12 12 -17 -1 -5 4 -10 12 -12 9 -2 8 0 -2 7
-13 9 -12 11 5 12 l20 0 -20 9 c-26 11 -44 12 -27 1z"/>
<path d="M1396 3838 c3 -5 10 -6 15 -2 6 3 20 -2 32 -13 l22 -18 -18 22 c-17
20 -62 30 -51 11z"/>
<path d="M2786 3817 c3 -10 9 -15 12 -12 3 3 0 11 -7 18 -10 9 -11 8 -5 -6z"/>
<path d="M2766 3807 c3 -10 9 -15 12 -12 3 3 0 11 -7 18 -10 9 -11 8 -5 -6z"/>
<path d="M2795 3770 c-3 -6 1 -7 9 -4 18 7 21 14 7 14 -6 0 -13 -4 -16 -10z"/>
<path d="M5906 3763 c-6 -14 -5 -15 5 -6 7 7 10 15 7 18 -3 3 -9 -2 -12 -12z"/>
<path d="M5936 3758 c3 -5 10 -6 15 -3 13 9 11 12 -6 12 -8 0 -12 -4 -9 -9z"/>
<path d="M5835 3640 c3 -5 8 -10 11 -10 2 0 4 5 4 10 0 6 -5 10 -11 10 -5 0
-7 -4 -4 -10z"/>
<path d="M1530 3626 c0 -2 7 -7 16 -10 8 -3 12 -2 9 4 -6 10 -25 14 -25 6z"/>
<path d="M5750 3599 c0 -5 5 -7 10 -4 6 3 10 8 10 11 0 2 -4 4 -10 4 -5 0 -10
-5 -10 -11z"/>
<path d="M2962 3518 c-12 -6 -21 -15 -20 -20 4 -10 18 -12 17 -2 0 3 8 12 18
20 21 16 16 17 -15 2z"/>
<path d="M5696 3522 c-3 -6 1 -12 9 -16 8 -3 12 -12 9 -21 -3 -8 -4 -15 -1
-15 3 0 7 6 10 13 6 16 -19 52 -27 39z"/>
<path d="M1610 3505 c0 -5 5 -17 10 -25 5 -8 10 -10 10 -5 0 6 -5 17 -10 25
-5 8 -10 11 -10 5z"/>
<path d="M1655 3469 c-4 -6 -5 -12 -2 -15 2 -3 7 2 10 11 7 17 1 20 -8 4z"/>
<path d="M5730 3461 c0 -6 4 -13 10 -16 6 -3 7 1 4 9 -7 18 -14 21 -14 7z"/>
<path d="M1690 3380 c0 -5 5 -10 11 -10 5 0 7 5 4 10 -3 6 -8 10 -11 10 -2 0
-4 -4 -4 -10z"/>
<path d="M3090 3343 c0 -6 8 -17 18 -24 16 -13 16 -13 2 6 -8 11 -16 22 -17
24 -2 2 -3 0 -3 -6z"/>
<path d="M1735 3320 c3 -5 8 -10 11 -10 2 0 4 5 4 10 0 6 -5 10 -11 10 -5 0
-7 -4 -4 -10z"/>
<path d="M5611 3314 c0 -11 3 -14 6 -6 3 7 2 16 -1 19 -3 4 -6 -2 -5 -13z"/>
<path d="M3110 3225 c11 -12 17 -26 13 -30 -5 -5 0 -3 10 4 9 7 17 16 17 19 0
3 -3 3 -6 -1 -7 -7 -34 15 -28 24 2 3 -4 6 -12 6 -11 0 -10 -5 6 -22z"/>
<path d="M3136 3238 c3 -5 10 -6 15 -3 13 9 11 12 -6 12 -8 0 -12 -4 -9 -9z"/>
<path d="M1786 3218 c3 -4 11 -5 19 -1 21 7 19 12 -4 10 -11 0 -18 -5 -15 -9z"/>
<path d="M3155 3170 c-3 -6 1 -7 9 -4 18 7 21 14 7 14 -6 0 -13 -4 -16 -10z"/>
<path d="M3181 3143 c7 -12 15 -20 18 -17 3 2 -3 12 -13 22 -17 16 -18 16 -5
-5z"/>
<path d="M3186 3098 c3 -4 9 -8 15 -8 5 0 9 4 9 8 0 5 -7 9 -15 9 -8 0 -12 -4
-9 -9z"/>
<path d="M1870 3086 c0 -2 7 -7 16 -10 8 -3 12 -2 9 4 -6 10 -25 14 -25 6z"/>
<path d="M3214 3047 c14 -19 23 -37 18 -42 -4 -5 -1 -5 6 -1 7 4 10 12 7 17
-4 5 -1 9 4 9 6 0 11 5 11 11 0 8 -5 8 -15 -1 -15 -12 -21 -4 -16 23 1 5 -3 6
-9 2 -5 -3 -10 -1 -10 4 0 6 -5 11 -11 11 -5 0 1 -15 15 -33z"/>
<path d="M3260 3007 c0 -9 5 -17 11 -17 5 0 7 -5 3 -12 -4 -7 -3 -8 5 -4 9 6
9 12 -1 24 -7 10 -14 19 -15 21 -2 2 -3 -3 -3 -12z"/>
<path d="M1910 3006 c0 -2 7 -7 16 -10 8 -3 12 -2 9 4 -6 10 -25 14 -25 6z"/>
<path d="M1950 2880 c0 -5 5 -10 11 -10 5 0 7 5 4 10 -3 6 -8 10 -11 10 -2 0
-4 -4 -4 -10z"/>
<path d="M3365 2840 c-3 -5 -1 -10 4 -10 6 0 11 5 11 10 0 6 -2 10 -4 10 -3 0
-8 -4 -11 -10z"/>
<path d="M2039 2813 c-12 -16 -12 -17 2 -6 9 7 20 9 24 5 5 -4 5 -1 1 6 -9 16
-11 15 -27 -5z"/>
<path d="M3394 2799 c-3 -6 -2 -15 3 -20 5 -5 9 -1 9 11 0 23 -2 24 -12 9z"/>
<path d="M2095 2740 c-3 -5 -1 -10 4 -10 6 0 11 5 11 10 0 6 -2 10 -4 10 -3 0
-8 -4 -11 -10z"/>
<path d="M5162 2716 c4 -5 -2 -21 -12 -37 -13 -17 -16 -30 -10 -34 5 -3 11 -4
11 -1 1 3 3 11 4 16 1 6 3 15 4 21 0 5 5 8 10 4 18 -10 21 13 3 26 -9 7 -14 9
-10 5z"/>
<path d="M3418 2703 c6 -3 10 -9 7 -13 -3 -5 -1 -11 5 -15 6 -3 13 1 16 9 3 9
11 13 18 9 6 -3 8 -2 4 2 -5 5 -20 9 -35 11 -16 1 -22 0 -15 -3z"/>
<path d="M2133 2655 c0 -8 4 -12 9 -9 5 3 6 10 3 15 -9 13 -12 11 -12 -6z"/>
<path d="M3445 2660 c-3 -5 -1 -10 5 -10 6 0 9 -4 6 -9 -3 -4 0 -15 7 -24 11
-14 14 -14 31 -2 11 8 15 15 10 15 -6 0 -15 -5 -22 -12 -7 -7 -12 -8 -12 -2 0
6 6 16 13 23 10 10 9 12 -3 9 -8 -2 -14 3 -12 10 2 14 -14 16 -23 2z"/>
<path d="M2155 2620 c3 -5 8 -10 11 -10 2 0 4 5 4 10 0 6 -5 10 -11 10 -5 0
-7 -4 -4 -10z"/>
<path d="M5136 2593 c-6 -14 -5 -15 5 -6 7 7 10 15 7 18 -3 3 -9 -2 -12 -12z"/>
<path d="M3516 2526 c7 -19 20 -21 30 -3 4 6 4 9 -1 5 -4 -4 -14 -3 -22 4 -11
8 -12 7 -7 -6z"/>
<path d="M3562 2480 c-7 -11 -8 -20 -3 -20 9 0 24 30 18 36 -1 2 -8 -6 -15
-16z"/>
<path d="M4999 2473 c-2 -15 -6 -32 -8 -35 -2 -2 -4 -16 -6 -33 -3 -24 -2 -27
6 -12 6 9 7 22 4 27 -3 6 -2 10 3 10 15 0 21 25 11 41 -6 10 -9 11 -10 2z"/>
<path d="M2260 2450 c6 -11 13 -20 16 -20 2 0 0 9 -6 20 -6 11 -13 20 -16 20
-2 0 0 -9 6 -20z"/>
<path d="M3615 2420 c3 -5 8 -10 11 -10 2 0 4 5 4 10 0 6 -5 10 -11 10 -5 0
-7 -4 -4 -10z"/>
<path d="M3590 2410 c0 -5 5 -10 11 -10 5 0 7 5 4 10 -3 6 -8 10 -11 10 -2 0
-4 -4 -4 -10z"/>
<path d="M2313 2365 c0 -8 4 -12 9 -9 5 3 6 10 3 15 -9 13 -12 11 -12 -6z"/>
<path d="M2330 2339 c0 -5 5 -7 10 -4 6 3 10 8 10 11 0 2 -4 4 -10 4 -5 0 -10
-5 -10 -11z"/>
<path d="M4970 2339 c0 -5 5 -7 10 -4 6 3 10 8 10 11 0 2 -4 4 -10 4 -5 0 -10
-5 -10 -11z"/>
<path d="M3645 2324 c0 -10 7 -28 14 -39 9 -15 11 -16 7 -2 -4 11 0 17 12 18
14 0 14 2 2 6 -8 4 -20 13 -26 21 -9 13 -11 12 -9 -4z"/>
<path d="M3717 2197 c-3 -7 1 -21 9 -32 8 -10 14 -14 14 -8 0 7 -4 14 -10 18
-5 3 -7 12 -3 20 3 8 3 15 0 15 -3 0 -7 -6 -10 -13z"/>
<path d="M4866 2202 c-3 -5 1 -9 9 -9 8 0 15 4 15 9 0 4 -4 8 -9 8 -6 0 -12
-4 -15 -8z"/>
<path d="M3746 2177 c3 -10 9 -15 12 -12 3 3 0 11 -7 18 -10 9 -11 8 -5 -6z"/>
<path d="M4835 2180 c3 -5 8 -10 11 -10 2 0 4 5 4 10 0 6 -5 10 -11 10 -5 0
-7 -4 -4 -10z"/>
<path d="M2429 2163 c-13 -16 -12 -17 4 -4 9 7 17 15 17 17 0 8 -8 3 -21 -13z"/>
<path d="M3763 2135 c0 -8 4 -12 9 -9 5 3 6 10 3 15 -9 13 -12 11 -12 -6z"/>
<path d="M2451 2107 c2 -1 13 -9 24 -17 19 -14 19 -14 6 3 -7 9 -18 17 -24 17
-6 0 -8 -1 -6 -3z"/>
<path d="M4745 2101 c-8 -7 -6 -21 3 -21 5 0 17 6 28 14 18 14 18 15 -4 13
-13 -1 -25 -3 -27 -6z"/>
<path d="M4790 2079 c0 -5 5 -7 10 -4 6 3 10 8 10 11 0 2 -4 4 -10 4 -5 0 -10
-5 -10 -11z"/>
<path d="M4735 2001 c-3 -5 -2 -12 3 -15 5 -3 9 1 9 9 0 17 -3 19 -12 6z"/>
<path d="M3838 1981 c8 -4 13 -11 13 -15 -2 -17 0 -19 11 -8 10 10 10 15 -2
22 -8 5 -19 10 -25 10 -5 0 -4 -4 3 -9z"/>
<path d="M4660 1968 c0 -9 -7 -21 -15 -28 -17 -14 -20 -30 -5 -30 6 0 10 7 10
16 0 8 5 12 10 9 6 -4 7 -12 3 -18 -4 -7 1 -6 10 2 14 11 15 16 5 29 -7 8 -11
17 -10 19 2 3 1 7 -2 11 -3 3 -6 -2 -6 -10z"/>
<path d="M2590 1931 c0 -7 -5 -9 -12 -5 -7 5 -8 3 -3 -5 5 -9 10 -10 18 -2 6
6 8 14 4 18 -4 3 -7 1 -7 -6z"/>
<path d="M4431 1617 c2 -2 11 -8 20 -15 12 -9 16 -9 16 1 0 7 -9 14 -20 14
-11 1 -18 1 -16 0z"/>
<path d="M2815 1520 c-2 -3 5 -7 16 -7 10 -1 19 2 19 6 0 9 -29 10 -35 1z"/>
<path d="M4396 1502 c-2 -4 4 -8 14 -8 10 0 16 4 14 8 -3 4 -9 8 -14 8 -5 0
-11 -4 -14 -8z"/>
<path d="M2868 1473 c6 -2 9 -10 6 -15 -4 -7 -2 -8 5 -4 13 9 5 26 -12 25 -9
0 -8 -2 1 -6z"/>
<path d="M4189 1243 c-8 -9 -8 -13 0 -13 6 0 11 5 11 11 0 5 4 8 9 4 5 -3 12
-2 15 3 9 14 -23 10 -35 -5z"/>
<path d="M4178 1213 c6 -2 10 -9 7 -14 -4 -5 1 -6 10 -2 13 5 14 7 3 14 -7 5
-17 8 -23 8 -5 0 -4 -3 3 -6z"/>
<path d="M3013 1185 c0 -8 4 -12 9 -9 5 3 6 10 3 15 -9 13 -12 11 -12 -6z"/>
<path d="M4125 1080 c3 -5 8 -10 11 -10 2 0 4 5 4 10 0 6 -5 10 -11 10 -5 0
-7 -4 -4 -10z"/>
<path d="M4071 1010 c-13 -11 -19 -20 -13 -20 5 0 15 7 22 15 7 8 17 12 23 8
6 -3 7 -1 3 5 -9 15 -6 15 -35 -8z"/>
<path d="M3120 1006 c0 -2 8 -10 18 -17 15 -13 16 -12 3 4 -13 16 -21 21 -21
13z"/>
<path d="M4006 924 c-19 -18 -21 -34 -4 -34 6 0 8 3 5 7 -4 3 0 15 10 25 20
22 11 24 -11 2z"/>
<path d="M3176 918 c3 -5 10 -6 15 -3 13 9 11 12 -6 12 -8 0 -12 -4 -9 -9z"/>
<path d="M3235 860 c-3 -5 -1 -10 4 -10 6 0 11 5 11 10 0 6 -2 10 -4 10 -3 0
-8 -4 -11 -10z"/>
<path d="M3268 803 c7 -3 16 -2 19 1 4 3 -2 6 -13 5 -11 0 -14 -3 -6 -6z"/>
<path d="M3900 762 c0 -5 7 -9 15 -9 8 0 12 4 9 9 -3 4 -9 8 -15 8 -5 0 -9 -4
-9 -8z"/>
<path d="M3860 756 c0 -2 7 -9 15 -16 9 -7 15 -8 15 -2 0 5 -7 12 -15 16 -8 3
-15 4 -15 2z"/>
<path d="M3316 707 c3 -10 9 -15 12 -12 3 3 0 11 -7 18 -10 9 -11 8 -5 -6z"/>
<path d="M3810 700 c-10 -27 -6 -38 12 -35 12 3 23 7 27 11 3 4 -2 4 -11 1
-11 -4 -18 0 -21 11 -3 9 -6 15 -7 12z"/>
<path d="M3810 640 c0 -5 -6 -7 -14 -4 -17 6 -31 -12 -16 -21 6 -4 8 -10 6
-14 -3 -4 1 -8 9 -8 12 0 12 4 -2 20 -17 19 -17 20 -1 14 10 -3 20 -2 23 4 4
5 11 6 17 3 7 -4 8 -2 4 4 -9 14 -26 16 -26 2z"/>
<path d="M3386 598 c3 -4 9 -8 15 -8 5 0 9 4 9 8 0 5 -7 9 -15 9 -8 0 -12 -4
-9 -9z"/>
<path d="M3771 564 c0 -11 3 -14 6 -6 3 7 2 16 -1 19 -3 4 -6 -2 -5 -13z"/>
<path d="M3426 522 c-3 -5 1 -9 9 -9 8 0 12 4 9 9 -3 4 -7 8 -9 8 -2 0 -6 -4
-9 -8z"/>
<path d="M3535 390 c-3 -6 1 -7 9 -4 18 7 21 14 7 14 -6 0 -13 -4 -16 -10z"/>
</g>
</svg>
